<svg width="26" height="25" viewBox="0 0 26 25" fill="none" xmlns="http://www.w3.org/2000/svg">
<path d="M9.5468 23.2683H16.5778C22.437 23.2683 24.7807 21.0415 24.7807 15.4744V8.7939C24.7807 3.22683 22.437 1 16.5778 1H9.5468C3.68766 1 1.34399 3.22683 1.34399 8.7939V15.4744C1.34399 21.0415 3.68766 23.2683 9.5468 23.2683Z" stroke="#005FB7" stroke-width="1.67053" stroke-linecap="round" stroke-linejoin="round"/>
<path d="M17.2458 19.5982V15.2559" stroke="#005FB7" stroke-width="1.67053" stroke-miterlimit="10" stroke-linecap="round" stroke-linejoin="round"/>
<path d="M17.2458 7.29547V5.12378" stroke="#005FB7" stroke-width="1.67053" stroke-miterlimit="10" stroke-linecap="round" stroke-linejoin="round"/>
<path d="M17.2457 12.9609C18.9284 12.9609 20.2925 11.6648 20.2925 10.066C20.2925 8.46722 18.9284 7.17114 17.2457 7.17114C15.5631 7.17114 14.199 8.46722 14.199 10.066C14.199 11.6648 15.5631 12.9609 17.2457 12.9609Z" stroke="#005FB7" stroke-width="1.67053" stroke-miterlimit="10" stroke-linecap="round" stroke-linejoin="round"/>
<path d="M8.87885 19.5987V17.427" stroke="#005FB7" stroke-width="1.67053" stroke-miterlimit="10" stroke-linecap="round" stroke-linejoin="round"/>
<path d="M8.87885 9.34232V5" stroke="#005FB7" stroke-width="1.67053" stroke-miterlimit="10" stroke-linecap="round" stroke-linejoin="round"/>
<path d="M8.87892 17.427C10.5616 17.427 11.9257 16.1309 11.9257 14.5321C11.9257 12.9333 10.5616 11.6372 8.87892 11.6372C7.19624 11.6372 5.83215 12.9333 5.83215 14.5321C5.83215 16.1309 7.19624 17.427 8.87892 17.427Z" stroke="#005FB7" stroke-width="1.67053" stroke-miterlimit="10" stroke-linecap="round" stroke-linejoin="round"/>
</svg>
