<svg width="620" height="226" viewBox="0 0 620 226" fill="none" xmlns="http://www.w3.org/2000/svg">
<path d="M57.4486 21.8711H578.555" stroke="#CCD4E2" stroke-width="0.870398" stroke-dasharray="6.09 6.09"/>
<path d="M57.4486 64.8218H578.555" stroke="#CCD4E2" stroke-width="0.870398" stroke-dasharray="6.09 6.09"/>
<path d="M57.4486 107.887H578.555" stroke="#CCD4E2" stroke-width="0.870398" stroke-dasharray="6.09 6.09"/>
<path d="M55.9221 150.839H577.029" stroke="#CCD4E2" stroke-width="0.870398" stroke-dasharray="6.09 6.09"/>
<path fill-rule="evenodd" clip-rule="evenodd" d="M264.17 0.791992C258.401 0.791992 253.725 5.46828 253.725 11.2368V42.139C253.725 47.9075 258.401 52.5838 264.17 52.5838H309.797L318.383 57.9258L326.339 52.5838H371.836C377.605 52.5838 382.281 47.9075 382.281 42.139V11.2368C382.281 5.46828 377.605 0.791992 371.836 0.791992H264.17Z" fill="#141736"/>
<path d="M300.507 14.3164V22.2031H299.478V14.3164H300.507ZM305.283 15.8893C306.038 15.8893 306.649 16.1193 307.117 16.5795C307.584 17.0321 307.818 17.6884 307.818 18.5483V22.2031H306.8V18.6954C306.8 18.0769 306.645 17.6054 306.336 17.281C306.027 16.9491 305.604 16.7832 305.069 16.7832C304.525 16.7832 304.092 16.9529 303.767 17.2923C303.45 17.6318 303.292 18.1259 303.292 18.7746V22.2031H302.262V16.0024H303.292V16.885C303.496 16.5682 303.771 16.323 304.118 16.1495C304.473 15.976 304.861 15.8893 305.283 15.8893ZM309.115 19.0915C309.115 18.4503 309.244 17.892 309.5 17.4168C309.757 16.934 310.111 16.5606 310.564 16.2966C311.024 16.0326 311.548 15.9006 312.137 15.9006C312.898 15.9006 313.525 16.0854 314.015 16.455C314.513 16.8246 314.841 17.3376 314.999 17.9939H313.89C313.785 17.6167 313.577 17.3187 313.268 17.1C312.966 16.8812 312.589 16.7718 312.137 16.7718C311.548 16.7718 311.073 16.9755 310.711 17.3829C310.349 17.7827 310.168 18.3522 310.168 19.0915C310.168 19.8383 310.349 20.4153 310.711 20.8227C311.073 21.23 311.548 21.4337 312.137 21.4337C312.589 21.4337 312.966 21.3281 313.268 21.1169C313.57 20.9057 313.777 20.6039 313.89 20.2117H314.999C314.833 20.8453 314.501 21.3545 314.004 21.7392C313.506 22.1164 312.883 22.305 312.137 22.305C311.548 22.305 311.024 22.173 310.564 21.9089C310.111 21.6449 309.757 21.2715 309.5 20.7887C309.244 20.3059 309.115 19.7402 309.115 19.0915ZM319.077 22.305C318.497 22.305 317.969 22.173 317.493 21.9089C317.026 21.6449 316.656 21.2715 316.384 20.7887C316.12 20.2984 315.988 19.7326 315.988 19.0915C315.988 18.4578 316.124 17.8996 316.396 17.4168C316.675 16.9265 317.052 16.5531 317.527 16.2966C318.003 16.0326 318.534 15.9006 319.123 15.9006C319.711 15.9006 320.243 16.0326 320.718 16.2966C321.193 16.5531 321.567 16.9227 321.838 17.4055C322.117 17.8883 322.257 18.4503 322.257 19.0915C322.257 19.7326 322.114 20.2984 321.827 20.7887C321.548 21.2715 321.167 21.6449 320.684 21.9089C320.201 22.173 319.666 22.305 319.077 22.305ZM319.077 21.3997C319.447 21.3997 319.794 21.313 320.118 21.1395C320.443 20.966 320.703 20.7058 320.899 20.3588C321.103 20.0118 321.205 19.5893 321.205 19.0915C321.205 18.5936 321.107 18.1712 320.911 17.8242C320.714 17.4772 320.458 17.2207 320.141 17.0547C319.824 16.8812 319.481 16.7945 319.111 16.7945C318.734 16.7945 318.387 16.8812 318.07 17.0547C317.761 17.2207 317.512 17.4772 317.324 17.8242C317.135 18.1712 317.041 18.5936 317.041 19.0915C317.041 19.5969 317.131 20.0231 317.312 20.3701C317.501 20.7171 317.75 20.9773 318.059 21.1508C318.368 21.3168 318.708 21.3997 319.077 21.3997ZM331.068 15.8893C331.55 15.8893 331.98 15.9911 332.358 16.1948C332.735 16.3909 333.033 16.6889 333.251 17.0887C333.47 17.4885 333.58 17.975 333.58 18.5483V22.2031H332.561V18.6954C332.561 18.0769 332.407 17.6054 332.097 17.281C331.796 16.9491 331.384 16.7832 330.864 16.7832C330.328 16.7832 329.902 16.9567 329.585 17.3037C329.268 17.6431 329.11 18.1372 329.11 18.7859V22.2031H328.092V18.6954C328.092 18.0769 327.937 17.6054 327.628 17.281C327.326 16.9491 326.915 16.7832 326.394 16.7832C325.859 16.7832 325.433 16.9567 325.116 17.3037C324.799 17.6431 324.641 18.1372 324.641 18.7859V22.2031H323.611V16.0024H324.641V16.8963C324.844 16.5719 325.116 16.323 325.455 16.1495C325.802 15.976 326.183 15.8893 326.598 15.8893C327.119 15.8893 327.579 16.0062 327.979 16.24C328.378 16.4739 328.676 16.8171 328.872 17.2697C329.046 16.8322 329.333 16.4927 329.732 16.2513C330.132 16.01 330.577 15.8893 331.068 15.8893ZM340.926 18.8651C340.926 19.0613 340.915 19.2687 340.892 19.4875H335.936C335.974 20.0985 336.181 20.5775 336.559 20.9245C336.943 21.264 337.407 21.4337 337.95 21.4337C338.395 21.4337 338.765 21.3319 339.059 21.1282C339.361 20.917 339.572 20.6379 339.693 20.2909H340.802C340.636 20.8868 340.304 21.3733 339.806 21.7505C339.308 22.1201 338.69 22.305 337.95 22.305C337.362 22.305 336.834 22.173 336.366 21.9089C335.906 21.6449 335.544 21.2715 335.28 20.7887C335.016 20.2984 334.884 19.7326 334.884 19.0915C334.884 18.4503 335.012 17.8883 335.269 17.4055C335.525 16.9227 335.883 16.5531 336.344 16.2966C336.811 16.0326 337.347 15.9006 337.95 15.9006C338.539 15.9006 339.059 16.0288 339.512 16.2853C339.964 16.5418 340.311 16.8963 340.553 17.3489C340.802 17.794 340.926 18.2994 340.926 18.8651ZM339.863 18.6502C339.863 18.2579 339.776 17.9222 339.602 17.6431C339.429 17.3565 339.191 17.1415 338.889 16.9981C338.595 16.8473 338.267 16.7718 337.905 16.7718C337.385 16.7718 336.939 16.9378 336.57 17.2697C336.208 17.6016 336 18.0618 335.948 18.6502H339.863Z" fill="#868799"/>
<path d="M270.978 44.3586L268.811 40.6377H267.375V44.3586H266.187V35.2586H269.124C269.812 35.2586 270.391 35.3761 270.861 35.6111C271.339 35.8461 271.696 36.1638 271.931 36.5642C272.166 36.9646 272.284 37.4216 272.284 37.9351C272.284 38.5618 272.101 39.1145 271.735 39.5932C271.379 40.0719 270.839 40.3896 270.117 40.5463L272.401 44.3586H270.978ZM267.375 39.6846H269.124C269.768 39.6846 270.251 39.5279 270.573 39.2146C270.896 38.8925 271.057 38.466 271.057 37.9351C271.057 37.3955 270.896 36.9777 270.573 36.6817C270.26 36.3858 269.777 36.2378 269.124 36.2378H267.375V39.6846ZM277.015 44.45C276.415 44.45 275.875 44.3456 275.396 44.1367C274.926 43.9191 274.556 43.6232 274.287 43.2489C274.017 42.8659 273.877 42.4264 273.869 41.9302H275.135C275.179 42.3567 275.353 42.7179 275.657 43.0139C275.971 43.3011 276.423 43.4447 277.015 43.4447C277.581 43.4447 278.025 43.3055 278.347 43.0269C278.678 42.7397 278.843 42.3741 278.843 41.9302C278.843 41.5821 278.747 41.2992 278.556 41.0816C278.364 40.864 278.125 40.6986 277.838 40.5855C277.551 40.4723 277.163 40.3505 276.676 40.2199C276.075 40.0632 275.592 39.9066 275.227 39.7499C274.87 39.5932 274.561 39.3495 274.3 39.0188C274.047 38.6793 273.921 38.2267 273.921 37.6609C273.921 37.1648 274.047 36.7253 274.3 36.3423C274.552 35.9593 274.905 35.6634 275.357 35.4545C275.818 35.2456 276.345 35.1411 276.937 35.1411C277.79 35.1411 278.486 35.3544 279.026 35.7809C279.574 36.2074 279.883 36.7731 279.953 37.4781H278.647C278.604 37.13 278.421 36.8253 278.099 36.5642C277.777 36.2944 277.35 36.1595 276.819 36.1595C276.323 36.1595 275.919 36.2901 275.605 36.5512C275.292 36.8036 275.135 37.1605 275.135 37.6218C275.135 37.9525 275.227 38.2223 275.409 38.4312C275.601 38.6401 275.832 38.8012 276.101 38.9143C276.38 39.0187 276.767 39.1406 277.263 39.2799C277.864 39.4452 278.347 39.6106 278.713 39.776C279.078 39.9327 279.391 40.1807 279.653 40.5202C279.914 40.8509 280.044 41.3035 280.044 41.878C280.044 42.3219 279.927 42.7397 279.692 43.1314C279.457 43.5231 279.109 43.8408 278.647 44.0845C278.186 44.3282 277.642 44.45 277.015 44.45ZM284.934 43.4056C286.039 42.5178 286.905 41.791 287.532 41.2252C288.159 40.6507 288.685 40.0545 289.112 39.4365C289.547 38.8099 289.765 38.1962 289.765 37.5956C289.765 37.0299 289.625 36.586 289.347 36.2639C289.077 35.9332 288.637 35.7678 288.028 35.7678C287.436 35.7678 286.975 35.9549 286.644 36.3292C286.322 36.6948 286.148 37.1866 286.122 37.8045H284.973C285.008 36.8297 285.304 36.0768 285.861 35.5459C286.418 35.0149 287.136 34.7494 288.015 34.7494C288.912 34.7494 289.621 34.9975 290.143 35.4936C290.674 35.9898 290.94 36.673 290.94 37.5434C290.94 38.2659 290.722 38.9709 290.287 39.6585C289.86 40.3374 289.373 40.938 288.825 41.4602C288.276 41.9738 287.576 42.5743 286.723 43.2619H291.214V44.2542H284.934V43.4056ZM293.162 44.437C292.935 44.437 292.744 44.3586 292.587 44.202C292.431 44.0453 292.352 43.8538 292.352 43.6275C292.352 43.4012 292.431 43.2097 292.587 43.053C292.744 42.8964 292.935 42.818 293.162 42.818C293.379 42.818 293.562 42.8964 293.71 43.053C293.867 43.2097 293.945 43.4012 293.945 43.6275C293.945 43.8538 293.867 44.0453 293.71 44.202C293.562 44.3586 293.379 44.437 293.162 44.437ZM300.59 37.1648C300.399 36.1987 299.802 35.7156 298.801 35.7156C298.027 35.7156 297.448 36.0159 297.065 36.6165C296.682 37.2083 296.495 38.1875 296.504 39.554C296.704 39.1014 297.034 38.7489 297.496 38.4965C297.966 38.2354 298.488 38.1048 299.063 38.1048C299.959 38.1048 300.673 38.3834 301.204 38.9404C301.743 39.4975 302.013 40.2678 302.013 41.2513C302.013 41.8432 301.896 42.3741 301.661 42.8441C301.434 43.3142 301.086 43.6884 300.616 43.967C300.155 44.2455 299.593 44.3848 298.932 44.3848C298.035 44.3848 297.335 44.1846 296.83 43.7842C296.325 43.3838 295.973 42.8311 295.772 42.1261C295.572 41.421 295.472 40.5507 295.472 39.5149C295.472 36.3205 296.586 34.7233 298.814 34.7233C299.667 34.7233 300.338 34.954 300.825 35.4153C301.312 35.8766 301.6 36.4598 301.687 37.1648H300.59ZM298.814 39.1101C298.44 39.1101 298.088 39.1885 297.757 39.3451C297.426 39.4931 297.156 39.7238 296.947 40.0371C296.747 40.3418 296.647 40.716 296.647 41.1599C296.647 41.8214 296.839 42.3611 297.222 42.7789C297.605 43.188 298.153 43.3925 298.867 43.3925C299.476 43.3925 299.959 43.2054 300.316 42.8311C300.681 42.4481 300.864 41.9346 300.864 41.2905C300.864 40.6116 300.69 40.0806 300.342 39.6977C299.994 39.306 299.485 39.1101 298.814 39.1101ZM307.807 44.3586L305 41.1991V44.3586H303.812V34.6972H305V40.3766L307.755 37.204H309.413L306.044 40.7683L309.426 44.3586H307.807Z" fill="white"/>
<rect x="265.618" y="10.6376" width="19.6986" height="12.9407" rx="3.04639" stroke="#FEFFFF" stroke-width="0.870398"/>
<path d="M279.917 17.1667C279.96 17.1951 279.993 17.2287 280.016 17.2658C280.039 17.3029 280.051 17.3426 280.051 17.3828C280.051 17.4229 280.039 17.4626 280.016 17.4997C279.993 17.5368 279.96 17.5705 279.917 17.5988L275.795 20.3671C275.718 20.4183 275.621 20.4476 275.522 20.4548C275.388 20.4655 275.248 20.4365 275.146 20.3676L271.017 17.5953C270.931 17.538 270.884 17.4603 270.883 17.3793C270.883 17.2983 270.931 17.2206 271.017 17.1632C271.102 17.1059 271.218 17.0737 271.338 17.0737C271.459 17.0737 271.575 17.1059 271.66 17.1632L275.007 19.4101L275.007 14.0636C275.007 13.9825 275.055 13.9048 275.14 13.8475C275.225 13.7902 275.341 13.7581 275.462 13.7581C275.582 13.7581 275.698 13.7902 275.783 13.8475C275.869 13.9048 275.917 13.9825 275.917 14.0636L275.917 19.4211L279.274 17.1667C279.316 17.1383 279.366 17.1158 279.421 17.1004C279.476 17.0851 279.536 17.0772 279.595 17.0772C279.655 17.0772 279.714 17.0851 279.77 17.1004C279.825 17.1158 279.875 17.1383 279.917 17.1667L279.917 17.1667Z" fill="#FEFFFF"/>
<path d="M59.0894 222.169C58.689 222.169 58.3293 222.099 58.0101 221.96C57.6968 221.815 57.4502 221.617 57.2703 221.368C57.0904 221.113 56.9976 220.819 56.9918 220.489H57.836C57.8651 220.773 57.9811 221.014 58.1842 221.211C58.3931 221.403 58.6948 221.498 59.0894 221.498C59.4666 221.498 59.7625 221.406 59.9772 221.22C60.1977 221.028 60.308 220.785 60.308 220.489C60.308 220.257 60.2442 220.068 60.1165 219.923C59.9888 219.778 59.8293 219.668 59.6378 219.592C59.4463 219.517 59.1881 219.436 58.8631 219.349C58.4627 219.244 58.1407 219.14 57.897 219.035C57.6591 218.931 57.4531 218.768 57.279 218.548C57.1107 218.321 57.0266 218.02 57.0266 217.643C57.0266 217.312 57.1107 217.019 57.279 216.763C57.4473 216.508 57.6823 216.311 57.984 216.172C58.2916 216.032 58.6426 215.963 59.0372 215.963C59.6059 215.963 60.0701 216.105 60.4298 216.389C60.7954 216.673 61.0014 217.051 61.0478 217.521H60.1774C60.1484 217.289 60.0266 217.085 59.8119 216.911C59.5972 216.732 59.3128 216.642 58.9589 216.642C58.6281 216.642 58.3583 216.729 58.1494 216.903C57.9405 217.071 57.836 217.309 57.836 217.616C57.836 217.837 57.897 218.017 58.0188 218.156C58.1465 218.295 58.3003 218.403 58.4801 218.478C58.6658 218.548 58.924 218.629 59.2548 218.722C59.6552 218.832 59.9772 218.942 60.2209 219.053C60.4647 219.157 60.6735 219.322 60.8476 219.549C61.0217 219.769 61.1087 220.071 61.1087 220.454C61.1087 220.75 61.0304 221.028 60.8737 221.289C60.7171 221.551 60.485 221.762 60.1774 221.925C59.8699 222.087 59.5072 222.169 59.0894 222.169ZM66.5045 217.338V222.108H65.7124V221.403C65.5615 221.646 65.3497 221.838 65.077 221.977C64.8101 222.111 64.5142 222.177 64.1892 222.177C63.8178 222.177 63.4842 222.102 63.1882 221.951C62.8923 221.794 62.6573 221.562 62.4832 221.255C62.3149 220.947 62.2308 220.573 62.2308 220.132V217.338H63.0142V220.027C63.0142 220.497 63.1331 220.86 63.371 221.115C63.6089 221.365 63.9339 221.49 64.3459 221.49C64.7695 221.49 65.1031 221.359 65.3468 221.098C65.5905 220.837 65.7124 220.457 65.7124 219.958V217.338H66.5045ZM70.1658 217.251C70.746 217.251 71.2161 217.428 71.5758 217.782C71.9356 218.13 72.1155 218.635 72.1155 219.296V222.108H71.3321V219.409C71.3321 218.934 71.2132 218.571 70.9753 218.321C70.7373 218.066 70.4124 217.938 70.0004 217.938C69.5826 217.938 69.249 218.069 68.9994 218.33C68.7557 218.591 68.6339 218.971 68.6339 219.47V222.108H67.8418V217.338H68.6339V218.017C68.7906 217.773 69.0023 217.584 69.2693 217.451C69.542 217.318 69.8408 217.251 70.1658 217.251ZM73.1134 219.705C73.1134 219.218 73.212 218.791 73.4093 218.426C73.6066 218.055 73.8764 217.767 74.2188 217.564C74.5669 217.361 74.9557 217.26 75.3851 217.26C75.7565 217.26 76.1017 217.347 76.4209 217.521C76.74 217.689 76.9837 217.912 77.152 218.191V215.667H77.9528V222.108H77.152V221.211C76.9953 221.495 76.7632 221.73 76.4557 221.916C76.1482 222.096 75.7884 222.186 75.3764 222.186C74.9528 222.186 74.5669 222.082 74.2188 221.873C73.8764 221.664 73.6066 221.371 73.4093 220.994C73.212 220.616 73.1134 220.187 73.1134 219.705ZM77.152 219.714C77.152 219.354 77.0795 219.041 76.9344 218.774C76.7894 218.507 76.5921 218.304 76.3425 218.165C76.0988 218.02 75.829 217.947 75.5331 217.947C75.2371 217.947 74.9673 218.017 74.7236 218.156C74.4799 218.295 74.2855 218.498 74.1404 218.765C73.9954 219.032 73.9228 219.346 73.9228 219.705C73.9228 220.071 73.9954 220.39 74.1404 220.663C74.2855 220.93 74.4799 221.136 74.7236 221.281C74.9673 221.42 75.2371 221.49 75.5331 221.49C75.829 221.49 76.0988 221.42 76.3425 221.281C76.5921 221.136 76.7894 220.93 76.9344 220.663C77.0795 220.39 77.152 220.074 77.152 219.714ZM78.9954 219.705C78.9954 219.218 79.094 218.791 79.2913 218.426C79.4886 218.055 79.7584 217.767 80.1008 217.564C80.4489 217.361 80.8348 217.26 81.2584 217.26C81.6762 217.26 82.0388 217.349 82.3464 217.529C82.6539 217.709 82.8831 217.936 83.034 218.208V217.338H83.8348V222.108H83.034V221.22C82.8773 221.498 82.6423 221.73 82.329 221.916C82.0214 222.096 81.6617 222.186 81.2497 222.186C80.8261 222.186 80.4431 222.082 80.1008 221.873C79.7584 221.664 79.4886 221.371 79.2913 220.994C79.094 220.616 78.9954 220.187 78.9954 219.705ZM83.034 219.714C83.034 219.354 82.9615 219.041 82.8164 218.774C82.6713 218.507 82.474 218.304 82.2245 218.165C81.9808 218.02 81.711 217.947 81.4151 217.947C81.1191 217.947 80.8493 218.017 80.6056 218.156C80.3619 218.295 80.1675 218.498 80.0224 218.765C79.8774 219.032 79.8048 219.346 79.8048 219.705C79.8048 220.071 79.8774 220.39 80.0224 220.663C80.1675 220.93 80.3619 221.136 80.6056 221.281C80.8493 221.42 81.1191 221.49 81.4151 221.49C81.711 221.49 81.9808 221.42 82.2245 221.281C82.474 221.136 82.6713 220.93 82.8164 220.663C82.9615 220.39 83.034 220.074 83.034 219.714ZM89.2816 217.338L86.4092 224.353H85.5911L86.5311 222.055L84.6075 217.338H85.4866L86.9837 221.202L88.4634 217.338H89.2816Z" fill="#A5B4CB"/>
<path d="M143.9 216.085V222.108H143.108V217.616L141.106 222.108H140.549L138.538 217.608V222.108H137.746V216.085H138.599L140.827 221.063L143.056 216.085H143.9ZM147.323 222.186C146.877 222.186 146.471 222.084 146.105 221.881C145.745 221.678 145.461 221.391 145.252 221.02C145.049 220.642 144.947 220.207 144.947 219.714C144.947 219.227 145.052 218.797 145.261 218.426C145.475 218.049 145.765 217.761 146.131 217.564C146.497 217.361 146.906 217.26 147.358 217.26C147.811 217.26 148.22 217.361 148.586 217.564C148.951 217.761 149.238 218.046 149.447 218.417C149.662 218.789 149.769 219.221 149.769 219.714C149.769 220.207 149.659 220.642 149.439 221.02C149.224 221.391 148.931 221.678 148.559 221.881C148.188 222.084 147.776 222.186 147.323 222.186ZM147.323 221.49C147.608 221.49 147.875 221.423 148.124 221.289C148.374 221.156 148.574 220.956 148.725 220.689C148.882 220.422 148.96 220.097 148.96 219.714C148.96 219.331 148.884 219.006 148.734 218.739C148.583 218.472 148.385 218.275 148.142 218.147C147.898 218.014 147.634 217.947 147.35 217.947C147.059 217.947 146.793 218.014 146.549 218.147C146.311 218.275 146.119 218.472 145.974 218.739C145.829 219.006 145.757 219.331 145.757 219.714C145.757 220.103 145.826 220.431 145.966 220.698C146.111 220.965 146.302 221.165 146.54 221.298C146.778 221.426 147.039 221.49 147.323 221.49ZM153.135 217.251C153.715 217.251 154.185 217.428 154.545 217.782C154.904 218.13 155.084 218.635 155.084 219.296V222.108H154.301V219.409C154.301 218.934 154.182 218.571 153.944 218.321C153.706 218.066 153.381 217.938 152.969 217.938C152.552 217.938 152.218 218.069 151.968 218.33C151.725 218.591 151.603 218.971 151.603 219.47V222.108H150.811V217.338H151.603V218.017C151.759 217.773 151.971 217.584 152.238 217.451C152.511 217.318 152.81 217.251 153.135 217.251ZM156.082 219.705C156.082 219.218 156.181 218.791 156.378 218.426C156.576 218.055 156.845 217.767 157.188 217.564C157.536 217.361 157.925 217.26 158.354 217.26C158.725 217.26 159.071 217.347 159.39 217.521C159.709 217.689 159.953 217.912 160.121 218.191V215.667H160.922V222.108H160.121V221.211C159.964 221.495 159.732 221.73 159.425 221.916C159.117 222.096 158.757 222.186 158.345 222.186C157.922 222.186 157.536 222.082 157.188 221.873C156.845 221.664 156.576 221.371 156.378 220.994C156.181 220.616 156.082 220.187 156.082 219.705ZM160.121 219.714C160.121 219.354 160.048 219.041 159.903 218.774C159.758 218.507 159.561 218.304 159.311 218.165C159.068 218.02 158.798 217.947 158.502 217.947C158.206 217.947 157.936 218.017 157.693 218.156C157.449 218.295 157.254 218.498 157.109 218.765C156.964 219.032 156.892 219.346 156.892 219.705C156.892 220.071 156.964 220.39 157.109 220.663C157.254 220.93 157.449 221.136 157.693 221.281C157.936 221.42 158.206 221.49 158.502 221.49C158.798 221.49 159.068 221.42 159.311 221.281C159.561 221.136 159.758 220.93 159.903 220.663C160.048 220.39 160.121 220.074 160.121 219.714ZM161.964 219.705C161.964 219.218 162.063 218.791 162.26 218.426C162.457 218.055 162.727 217.767 163.07 217.564C163.418 217.361 163.804 217.26 164.227 217.26C164.645 217.26 165.008 217.349 165.315 217.529C165.623 217.709 165.852 217.936 166.003 218.208V217.338H166.804V222.108H166.003V221.22C165.846 221.498 165.611 221.73 165.298 221.916C164.99 222.096 164.631 222.186 164.219 222.186C163.795 222.186 163.412 222.082 163.07 221.873C162.727 221.664 162.457 221.371 162.26 220.994C162.063 220.616 161.964 220.187 161.964 219.705ZM166.003 219.714C166.003 219.354 165.93 219.041 165.785 218.774C165.64 218.507 165.443 218.304 165.193 218.165C164.95 218.02 164.68 217.947 164.384 217.947C164.088 217.947 163.818 218.017 163.575 218.156C163.331 218.295 163.136 218.498 162.991 218.765C162.846 219.032 162.774 219.346 162.774 219.705C162.774 220.071 162.846 220.39 162.991 220.663C163.136 220.93 163.331 221.136 163.575 221.281C163.818 221.42 164.088 221.49 164.384 221.49C164.68 221.49 164.95 221.42 165.193 221.281C165.443 221.136 165.64 220.93 165.785 220.663C165.93 220.39 166.003 220.074 166.003 219.714ZM172.25 217.338L169.378 224.353H168.56L169.5 222.055L167.576 217.338H168.456L169.953 221.202L171.432 217.338H172.25Z" fill="#A5B4CB"/>
<path d="M222.059 216.041V216.685H220.406V222.108H219.614V216.685H217.951V216.041H222.059ZM227.265 217.338V222.108H226.473V221.403C226.322 221.646 226.11 221.838 225.837 221.977C225.57 222.111 225.274 222.177 224.949 222.177C224.578 222.177 224.244 222.102 223.948 221.951C223.652 221.794 223.417 221.562 223.243 221.255C223.075 220.947 222.991 220.573 222.991 220.132V217.338H223.774V220.027C223.774 220.497 223.893 220.86 224.131 221.115C224.369 221.365 224.694 221.49 225.106 221.49C225.53 221.49 225.863 221.359 226.107 221.098C226.351 220.837 226.473 220.457 226.473 219.958V217.338H227.265ZM232.954 219.54C232.954 219.691 232.945 219.85 232.928 220.019H229.115C229.144 220.489 229.304 220.857 229.594 221.124C229.89 221.385 230.247 221.516 230.665 221.516C231.007 221.516 231.291 221.437 231.518 221.281C231.75 221.118 231.912 220.904 232.005 220.637H232.858C232.731 221.095 232.475 221.469 232.092 221.76C231.709 222.044 231.233 222.186 230.665 222.186C230.212 222.186 229.806 222.084 229.446 221.881C229.092 221.678 228.814 221.391 228.611 221.02C228.408 220.642 228.306 220.207 228.306 219.714C228.306 219.221 228.405 218.789 228.602 218.417C228.799 218.046 229.075 217.761 229.429 217.564C229.789 217.361 230.201 217.26 230.665 217.26C231.117 217.26 231.518 217.358 231.866 217.555C232.214 217.753 232.481 218.025 232.667 218.374C232.858 218.716 232.954 219.105 232.954 219.54ZM232.136 219.375C232.136 219.073 232.069 218.815 231.936 218.6C231.802 218.379 231.619 218.214 231.387 218.104C231.161 217.988 230.908 217.93 230.63 217.93C230.23 217.93 229.887 218.057 229.603 218.313C229.324 218.568 229.165 218.922 229.124 219.375H232.136ZM235.688 222.186C235.322 222.186 234.995 222.125 234.704 222.003C234.414 221.876 234.185 221.701 234.017 221.481C233.849 221.255 233.756 220.996 233.738 220.706H234.556C234.58 220.944 234.69 221.139 234.887 221.289C235.09 221.44 235.354 221.516 235.679 221.516C235.981 221.516 236.219 221.449 236.393 221.316C236.567 221.182 236.654 221.014 236.654 220.811C236.654 220.602 236.561 220.448 236.376 220.349C236.19 220.245 235.903 220.143 235.514 220.045C235.16 219.952 234.87 219.859 234.644 219.766C234.423 219.668 234.232 219.525 234.069 219.34C233.912 219.148 233.834 218.899 233.834 218.591C233.834 218.348 233.907 218.124 234.052 217.921C234.197 217.718 234.403 217.558 234.67 217.442C234.937 217.32 235.241 217.26 235.584 217.26C236.112 217.26 236.538 217.393 236.863 217.66C237.188 217.927 237.362 218.292 237.385 218.757H236.593C236.576 218.507 236.474 218.307 236.289 218.156C236.109 218.005 235.865 217.93 235.557 217.93C235.273 217.93 235.047 217.991 234.879 218.113C234.71 218.234 234.626 218.394 234.626 218.591C234.626 218.748 234.675 218.878 234.774 218.983C234.879 219.082 235.006 219.163 235.157 219.227C235.314 219.285 235.528 219.351 235.801 219.427C236.143 219.52 236.422 219.613 236.637 219.705C236.851 219.792 237.034 219.926 237.185 220.106C237.342 220.286 237.423 220.521 237.429 220.811C237.429 221.072 237.356 221.307 237.211 221.516C237.066 221.725 236.86 221.89 236.593 222.012C236.332 222.128 236.03 222.186 235.688 222.186ZM238.251 219.705C238.251 219.218 238.35 218.791 238.547 218.426C238.744 218.055 239.014 217.767 239.356 217.564C239.705 217.361 240.093 217.26 240.523 217.26C240.894 217.26 241.239 217.347 241.558 217.521C241.878 217.689 242.121 217.912 242.29 218.191V215.667H243.09V222.108H242.29V221.211C242.133 221.495 241.901 221.73 241.593 221.916C241.286 222.096 240.926 222.186 240.514 222.186C240.09 222.186 239.705 222.082 239.356 221.873C239.014 221.664 238.744 221.371 238.547 220.994C238.35 220.616 238.251 220.187 238.251 219.705ZM242.29 219.714C242.29 219.354 242.217 219.041 242.072 218.774C241.927 218.507 241.73 218.304 241.48 218.165C241.236 218.02 240.967 217.947 240.671 217.947C240.375 217.947 240.105 218.017 239.861 218.156C239.617 218.295 239.423 218.498 239.278 218.765C239.133 219.032 239.06 219.346 239.06 219.705C239.06 220.071 239.133 220.39 239.278 220.663C239.423 220.93 239.617 221.136 239.861 221.281C240.105 221.42 240.375 221.49 240.671 221.49C240.967 221.49 241.236 221.42 241.48 221.281C241.73 221.136 241.927 220.93 242.072 220.663C242.217 220.39 242.29 220.074 242.29 219.714ZM244.133 219.705C244.133 219.218 244.232 218.791 244.429 218.426C244.626 218.055 244.896 217.767 245.238 217.564C245.587 217.361 245.972 217.26 246.396 217.26C246.814 217.26 247.176 217.349 247.484 217.529C247.792 217.709 248.021 217.936 248.172 218.208V217.338H248.972V222.108H248.172V221.22C248.015 221.498 247.78 221.73 247.467 221.916C247.159 222.096 246.799 222.186 246.387 222.186C245.964 222.186 245.581 222.082 245.238 221.873C244.896 221.664 244.626 221.371 244.429 220.994C244.232 220.616 244.133 220.187 244.133 219.705ZM248.172 219.714C248.172 219.354 248.099 219.041 247.954 218.774C247.809 218.507 247.612 218.304 247.362 218.165C247.118 218.02 246.849 217.947 246.553 217.947C246.257 217.947 245.987 218.017 245.743 218.156C245.499 218.295 245.305 218.498 245.16 218.765C245.015 219.032 244.942 219.346 244.942 219.705C244.942 220.071 245.015 220.39 245.16 220.663C245.305 220.93 245.499 221.136 245.743 221.281C245.987 221.42 246.257 221.49 246.553 221.49C246.849 221.49 247.118 221.42 247.362 221.281C247.612 221.136 247.809 220.93 247.954 220.663C248.099 220.39 248.172 220.074 248.172 219.714ZM254.419 217.338L251.547 224.353H250.729L251.669 222.055L249.745 217.338H250.624L252.121 221.202L253.601 217.338H254.419Z" fill="#A5B4CB"/>
<path d="M384.506 216.041V216.685H382.852V222.108H382.06V216.685H380.397V216.041H384.506ZM387.848 217.251C388.208 217.251 388.533 217.329 388.823 217.486C389.113 217.637 389.34 217.866 389.502 218.173C389.67 218.481 389.754 218.855 389.754 219.296V222.108H388.971V219.409C388.971 218.934 388.852 218.571 388.614 218.321C388.376 218.066 388.051 217.938 387.639 217.938C387.222 217.938 386.888 218.069 386.638 218.33C386.395 218.591 386.273 218.971 386.273 219.47V222.108H385.481V215.667H386.273V218.017C386.429 217.773 386.644 217.584 386.917 217.451C387.195 217.318 387.506 217.251 387.848 217.251ZM395.278 217.338V222.108H394.486V221.403C394.335 221.646 394.124 221.838 393.851 221.977C393.584 222.111 393.288 222.177 392.963 222.177C392.592 222.177 392.258 222.102 391.962 221.951C391.666 221.794 391.431 221.562 391.257 221.255C391.089 220.947 391.005 220.573 391.005 220.132V217.338H391.788V220.027C391.788 220.497 391.907 220.86 392.145 221.115C392.383 221.365 392.708 221.49 393.12 221.49C393.543 221.49 393.877 221.359 394.121 221.098C394.364 220.837 394.486 220.457 394.486 219.958V217.338H395.278ZM397.408 218.113C397.547 217.84 397.744 217.628 398 217.477C398.261 217.326 398.577 217.251 398.948 217.251V218.069H398.74C397.852 218.069 397.408 218.551 397.408 219.514V222.108H396.616V217.338H397.408V218.113ZM401.551 222.186C401.186 222.186 400.858 222.125 400.568 222.003C400.278 221.876 400.048 221.701 399.88 221.481C399.712 221.255 399.619 220.996 399.602 220.706H400.42C400.443 220.944 400.553 221.139 400.751 221.289C400.954 221.44 401.218 221.516 401.543 221.516C401.844 221.516 402.082 221.449 402.256 221.316C402.43 221.182 402.517 221.014 402.517 220.811C402.517 220.602 402.425 220.448 402.239 220.349C402.053 220.245 401.766 220.143 401.377 220.045C401.023 219.952 400.733 219.859 400.507 219.766C400.286 219.668 400.095 219.525 399.932 219.34C399.776 219.148 399.697 218.899 399.697 218.591C399.697 218.348 399.77 218.124 399.915 217.921C400.06 217.718 400.266 217.558 400.533 217.442C400.8 217.32 401.104 217.26 401.447 217.26C401.975 217.26 402.401 217.393 402.726 217.66C403.051 217.927 403.225 218.292 403.249 218.757H402.457C402.439 218.507 402.338 218.307 402.152 218.156C401.972 218.005 401.728 217.93 401.421 217.93C401.136 217.93 400.91 217.991 400.742 218.113C400.574 218.234 400.489 218.394 400.489 218.591C400.489 218.748 400.539 218.878 400.637 218.983C400.742 219.082 400.869 219.163 401.02 219.227C401.177 219.285 401.392 219.351 401.664 219.427C402.007 219.52 402.285 219.613 402.5 219.705C402.715 219.792 402.898 219.926 403.048 220.106C403.205 220.286 403.286 220.521 403.292 220.811C403.292 221.072 403.22 221.307 403.074 221.516C402.929 221.725 402.723 221.89 402.457 222.012C402.195 222.128 401.894 222.186 401.551 222.186ZM404.114 219.705C404.114 219.218 404.213 218.791 404.41 218.426C404.608 218.055 404.877 217.767 405.22 217.564C405.568 217.361 405.957 217.26 406.386 217.26C406.757 217.26 407.103 217.347 407.422 217.521C407.741 217.689 407.985 217.912 408.153 218.191V215.667H408.954V222.108H408.153V221.211C407.996 221.495 407.764 221.73 407.457 221.916C407.149 222.096 406.789 222.186 406.377 222.186C405.954 222.186 405.568 222.082 405.22 221.873C404.877 221.664 404.608 221.371 404.41 220.994C404.213 220.616 404.114 220.187 404.114 219.705ZM408.153 219.714C408.153 219.354 408.08 219.041 407.935 218.774C407.79 218.507 407.593 218.304 407.343 218.165C407.1 218.02 406.83 217.947 406.534 217.947C406.238 217.947 405.968 218.017 405.725 218.156C405.481 218.295 405.286 218.498 405.141 218.765C404.996 219.032 404.924 219.346 404.924 219.705C404.924 220.071 404.996 220.39 405.141 220.663C405.286 220.93 405.481 221.136 405.725 221.281C405.968 221.42 406.238 221.49 406.534 221.49C406.83 221.49 407.1 221.42 407.343 221.281C407.593 221.136 407.79 220.93 407.935 220.663C408.08 220.39 408.153 220.074 408.153 219.714ZM409.996 219.705C409.996 219.218 410.095 218.791 410.292 218.426C410.489 218.055 410.759 217.767 411.102 217.564C411.45 217.361 411.836 217.26 412.259 217.26C412.677 217.26 413.04 217.349 413.347 217.529C413.655 217.709 413.884 217.936 414.035 218.208V217.338H414.836V222.108H414.035V221.22C413.878 221.498 413.643 221.73 413.33 221.916C413.022 222.096 412.663 222.186 412.251 222.186C411.827 222.186 411.444 222.082 411.102 221.873C410.759 221.664 410.489 221.371 410.292 220.994C410.095 220.616 409.996 220.187 409.996 219.705ZM414.035 219.714C414.035 219.354 413.962 219.041 413.817 218.774C413.672 218.507 413.475 218.304 413.225 218.165C412.982 218.02 412.712 217.947 412.416 217.947C412.12 217.947 411.85 218.017 411.607 218.156C411.363 218.295 411.168 218.498 411.023 218.765C410.878 219.032 410.806 219.346 410.806 219.705C410.806 220.071 410.878 220.39 411.023 220.663C411.168 220.93 411.363 221.136 411.607 221.281C411.85 221.42 412.12 221.49 412.416 221.49C412.712 221.49 412.982 221.42 413.225 221.281C413.475 221.136 413.672 220.93 413.817 220.663C413.962 220.39 414.035 220.074 414.035 219.714ZM420.282 217.338L417.41 224.353H416.592L417.532 222.055L415.608 217.338H416.488L417.985 221.202L419.464 217.338H420.282Z" fill="#A5B4CB"/>
<path d="M464.781 216.041V216.685H462.144V218.731H464.285V219.375H462.144V222.108H461.352V216.041H464.781ZM466.53 218.113C466.669 217.84 466.867 217.628 467.122 217.477C467.383 217.326 467.699 217.251 468.071 217.251V218.069H467.862C466.974 218.069 466.53 218.551 466.53 219.514V222.108H465.738V217.338H466.53V218.113ZM469.394 216.563C469.243 216.563 469.116 216.511 469.011 216.407C468.907 216.302 468.854 216.174 468.854 216.024C468.854 215.873 468.907 215.745 469.011 215.641C469.116 215.536 469.243 215.484 469.394 215.484C469.539 215.484 469.661 215.536 469.76 215.641C469.864 215.745 469.916 215.873 469.916 216.024C469.916 216.174 469.864 216.302 469.76 216.407C469.661 216.511 469.539 216.563 469.394 216.563ZM469.777 217.338V222.108H468.985V217.338H469.777ZM470.831 219.705C470.831 219.218 470.93 218.791 471.127 218.426C471.324 218.055 471.594 217.767 471.936 217.564C472.285 217.361 472.673 217.26 473.103 217.26C473.474 217.26 473.819 217.347 474.139 217.521C474.458 217.689 474.701 217.912 474.87 218.191V215.667H475.67V222.108H474.87V221.211C474.713 221.495 474.481 221.73 474.173 221.916C473.866 222.096 473.506 222.186 473.094 222.186C472.671 222.186 472.285 222.082 471.936 221.873C471.594 221.664 471.324 221.371 471.127 220.994C470.93 220.616 470.831 220.187 470.831 219.705ZM474.87 219.714C474.87 219.354 474.797 219.041 474.652 218.774C474.507 218.507 474.31 218.304 474.06 218.165C473.817 218.02 473.547 217.947 473.251 217.947C472.955 217.947 472.685 218.017 472.441 218.156C472.198 218.295 472.003 218.498 471.858 218.765C471.713 219.032 471.641 219.346 471.641 219.705C471.641 220.071 471.713 220.39 471.858 220.663C472.003 220.93 472.198 221.136 472.441 221.281C472.685 221.42 472.955 221.49 473.251 221.49C473.547 221.49 473.817 221.42 474.06 221.281C474.31 221.136 474.507 220.93 474.652 220.663C474.797 220.39 474.87 220.074 474.87 219.714ZM476.713 219.705C476.713 219.218 476.812 218.791 477.009 218.426C477.206 218.055 477.476 217.767 477.818 217.564C478.167 217.361 478.553 217.26 478.976 217.26C479.394 217.26 479.757 217.349 480.064 217.529C480.372 217.709 480.601 217.936 480.752 218.208V217.338H481.552V222.108H480.752V221.22C480.595 221.498 480.36 221.73 480.047 221.916C479.739 222.096 479.379 222.186 478.967 222.186C478.544 222.186 478.161 222.082 477.818 221.873C477.476 221.664 477.206 221.371 477.009 220.994C476.812 220.616 476.713 220.187 476.713 219.705ZM480.752 219.714C480.752 219.354 480.679 219.041 480.534 218.774C480.389 218.507 480.192 218.304 479.942 218.165C479.699 218.02 479.429 217.947 479.133 217.947C478.837 217.947 478.567 218.017 478.323 218.156C478.08 218.295 477.885 218.498 477.74 218.765C477.595 219.032 477.523 219.346 477.523 219.705C477.523 220.071 477.595 220.39 477.74 220.663C477.885 220.93 478.08 221.136 478.323 221.281C478.567 221.42 478.837 221.49 479.133 221.49C479.429 221.49 479.699 221.42 479.942 221.281C480.192 221.136 480.389 220.93 480.534 220.663C480.679 220.39 480.752 220.074 480.752 219.714ZM486.999 217.338L484.127 224.353H483.309L484.249 222.055L482.325 217.338H483.204L484.701 221.202L486.181 217.338H486.999Z" fill="#A5B4CB"/>
<path d="M543.855 222.169C543.455 222.169 543.095 222.099 542.776 221.96C542.462 221.815 542.216 221.617 542.036 221.368C541.856 221.113 541.763 220.819 541.757 220.489H542.602C542.631 220.773 542.747 221.014 542.95 221.211C543.159 221.403 543.46 221.498 543.855 221.498C544.232 221.498 544.528 221.406 544.743 221.22C544.963 221.028 545.074 220.785 545.074 220.489C545.074 220.257 545.01 220.068 544.882 219.923C544.754 219.778 544.595 219.668 544.403 219.592C544.212 219.517 543.954 219.436 543.629 219.349C543.228 219.244 542.906 219.14 542.663 219.035C542.425 218.931 542.219 218.768 542.045 218.548C541.876 218.321 541.792 218.02 541.792 217.643C541.792 217.312 541.876 217.019 542.045 216.763C542.213 216.508 542.448 216.311 542.75 216.172C543.057 216.032 543.408 215.963 543.803 215.963C544.371 215.963 544.836 216.105 545.195 216.389C545.561 216.673 545.767 217.051 545.813 217.521H544.943C544.914 217.289 544.792 217.085 544.577 216.911C544.363 216.732 544.078 216.642 543.724 216.642C543.394 216.642 543.124 216.729 542.915 216.903C542.706 217.071 542.602 217.309 542.602 217.616C542.602 217.837 542.663 218.017 542.784 218.156C542.912 218.295 543.066 218.403 543.246 218.478C543.431 218.548 543.69 218.629 544.02 218.722C544.421 218.832 544.743 218.942 544.987 219.053C545.23 219.157 545.439 219.322 545.613 219.549C545.787 219.769 545.874 220.071 545.874 220.454C545.874 220.75 545.796 221.028 545.639 221.289C545.483 221.551 545.251 221.762 544.943 221.925C544.635 222.087 544.273 222.169 543.855 222.169ZM546.744 219.705C546.744 219.218 546.843 218.791 547.04 218.426C547.237 218.055 547.507 217.767 547.849 217.564C548.198 217.361 548.583 217.26 549.007 217.26C549.425 217.26 549.787 217.349 550.095 217.529C550.403 217.709 550.632 217.936 550.783 218.208V217.338H551.583V222.108H550.783V221.22C550.626 221.498 550.391 221.73 550.078 221.916C549.77 222.096 549.41 222.186 548.998 222.186C548.575 222.186 548.192 222.082 547.849 221.873C547.507 221.664 547.237 221.371 547.04 220.994C546.843 220.616 546.744 220.187 546.744 219.705ZM550.783 219.714C550.783 219.354 550.71 219.041 550.565 218.774C550.42 218.507 550.223 218.304 549.973 218.165C549.729 218.02 549.46 217.947 549.164 217.947C548.868 217.947 548.598 218.017 548.354 218.156C548.111 218.295 547.916 218.498 547.771 218.765C547.626 219.032 547.553 219.346 547.553 219.705C547.553 220.071 547.626 220.39 547.771 220.663C547.916 220.93 548.111 221.136 548.354 221.281C548.598 221.42 548.868 221.49 549.164 221.49C549.46 221.49 549.729 221.42 549.973 221.281C550.223 221.136 550.42 220.93 550.565 220.663C550.71 220.39 550.783 220.074 550.783 219.714ZM553.888 217.991V220.802C553.888 221.034 553.937 221.2 554.036 221.298C554.135 221.391 554.306 221.437 554.55 221.437H555.133V222.108H554.419C553.978 222.108 553.647 222.006 553.427 221.803C553.206 221.6 553.096 221.266 553.096 220.802V217.991H552.478V217.338H553.096V216.137H553.888V217.338H555.133V217.991H553.888ZM560.323 217.338V222.108H559.53V221.403C559.38 221.646 559.168 221.838 558.895 221.977C558.628 222.111 558.332 222.177 558.007 222.177C557.636 222.177 557.302 222.102 557.006 221.951C556.71 221.794 556.475 221.562 556.301 221.255C556.133 220.947 556.049 220.573 556.049 220.132V217.338H556.832V220.027C556.832 220.497 556.951 220.86 557.189 221.115C557.427 221.365 557.752 221.49 558.164 221.49C558.588 221.49 558.921 221.359 559.165 221.098C559.409 220.837 559.53 220.457 559.53 219.958V217.338H560.323ZM562.452 218.113C562.591 217.84 562.789 217.628 563.044 217.477C563.305 217.326 563.621 217.251 563.993 217.251V218.069H563.784C562.896 218.069 562.452 218.551 562.452 219.514V222.108H561.66V217.338H562.452V218.113ZM564.611 219.705C564.611 219.218 564.71 218.791 564.907 218.426C565.104 218.055 565.374 217.767 565.716 217.564C566.065 217.361 566.453 217.26 566.883 217.26C567.254 217.26 567.599 217.347 567.918 217.521C568.238 217.689 568.481 217.912 568.65 218.191V215.667H569.45V222.108H568.65V221.211C568.493 221.495 568.261 221.73 567.953 221.916C567.646 222.096 567.286 222.186 566.874 222.186C566.45 222.186 566.065 222.082 565.716 221.873C565.374 221.664 565.104 221.371 564.907 220.994C564.71 220.616 564.611 220.187 564.611 219.705ZM568.65 219.714C568.65 219.354 568.577 219.041 568.432 218.774C568.287 218.507 568.09 218.304 567.84 218.165C567.596 218.02 567.327 217.947 567.031 217.947C566.735 217.947 566.465 218.017 566.221 218.156C565.977 218.295 565.783 218.498 565.638 218.765C565.493 219.032 565.42 219.346 565.42 219.705C565.42 220.071 565.493 220.39 565.638 220.663C565.783 220.93 565.977 221.136 566.221 221.281C566.465 221.42 566.735 221.49 567.031 221.49C567.327 221.49 567.596 221.42 567.84 221.281C568.09 221.136 568.287 220.93 568.432 220.663C568.577 220.39 568.65 220.074 568.65 219.714ZM570.493 219.705C570.493 219.218 570.592 218.791 570.789 218.426C570.986 218.055 571.256 217.767 571.598 217.564C571.947 217.361 572.332 217.26 572.756 217.26C573.174 217.26 573.536 217.349 573.844 217.529C574.152 217.709 574.381 217.936 574.532 218.208V217.338H575.332V222.108H574.532V221.22C574.375 221.498 574.14 221.73 573.827 221.916C573.519 222.096 573.159 222.186 572.747 222.186C572.324 222.186 571.941 222.082 571.598 221.873C571.256 221.664 570.986 221.371 570.789 220.994C570.592 220.616 570.493 220.187 570.493 219.705ZM574.532 219.714C574.532 219.354 574.459 219.041 574.314 218.774C574.169 218.507 573.972 218.304 573.722 218.165C573.478 218.02 573.209 217.947 572.913 217.947C572.617 217.947 572.347 218.017 572.103 218.156C571.859 218.295 571.665 218.498 571.52 218.765C571.375 219.032 571.302 219.346 571.302 219.705C571.302 220.071 571.375 220.39 571.52 220.663C571.665 220.93 571.859 221.136 572.103 221.281C572.347 221.42 572.617 221.49 572.913 221.49C573.209 221.49 573.478 221.42 573.722 221.281C573.972 221.136 574.169 220.93 574.314 220.663C574.459 220.39 574.532 220.074 574.532 219.714ZM580.779 217.338L577.907 224.353H577.089L578.029 222.055L576.105 217.338H576.984L578.481 221.202L579.961 217.338H580.779Z" fill="#A5B4CB"/>
<path d="M308.242 216.032L306.545 222.108H305.109L303.969 217.782L302.776 222.108L301.349 222.116L299.712 216.032H301.018L302.088 220.75L303.324 216.032H304.682L305.849 220.724L306.928 216.032H308.242ZM313.52 219.592C313.52 219.766 313.509 219.923 313.486 220.062H309.96C309.989 220.41 310.111 220.683 310.326 220.88C310.541 221.078 310.805 221.176 311.118 221.176C311.571 221.176 311.893 220.982 312.084 220.593H313.399C313.259 221.057 312.992 221.44 312.598 221.742C312.203 222.038 311.719 222.186 311.144 222.186C310.68 222.186 310.262 222.084 309.891 221.881C309.525 221.672 309.238 221.379 309.029 221.002C308.826 220.625 308.725 220.19 308.725 219.697C308.725 219.198 308.826 218.76 309.029 218.382C309.232 218.005 309.517 217.715 309.882 217.512C310.248 217.309 310.668 217.207 311.144 217.207C311.603 217.207 312.012 217.306 312.371 217.503C312.737 217.701 313.018 217.982 313.216 218.348C313.419 218.707 313.52 219.122 313.52 219.592ZM312.258 219.244C312.253 218.931 312.139 218.681 311.919 218.496C311.698 218.304 311.429 218.208 311.109 218.208C310.808 218.208 310.552 218.301 310.343 218.487C310.14 218.667 310.016 218.919 309.969 219.244H312.258ZM314.096 219.679C314.096 219.192 314.192 218.76 314.384 218.382C314.581 218.005 314.848 217.715 315.184 217.512C315.521 217.309 315.895 217.207 316.307 217.207C316.621 217.207 316.919 217.277 317.204 217.416C317.488 217.55 317.714 217.73 317.883 217.956V215.667H319.119V222.108H317.883V221.394C317.732 221.632 317.52 221.823 317.247 221.968C316.975 222.113 316.658 222.186 316.299 222.186C315.892 222.186 315.521 222.082 315.184 221.873C314.848 221.664 314.581 221.371 314.384 220.994C314.192 220.611 314.096 220.172 314.096 219.679ZM317.891 219.697C317.891 219.401 317.833 219.148 317.717 218.939C317.601 218.725 317.445 218.562 317.247 218.452C317.05 218.336 316.838 218.278 316.612 218.278C316.386 218.278 316.177 218.333 315.985 218.443C315.794 218.554 315.637 218.716 315.515 218.931C315.399 219.14 315.341 219.389 315.341 219.679C315.341 219.969 315.399 220.225 315.515 220.445C315.637 220.66 315.794 220.825 315.985 220.941C316.183 221.057 316.391 221.115 316.612 221.115C316.838 221.115 317.05 221.06 317.247 220.95C317.445 220.834 317.601 220.672 317.717 220.463C317.833 220.248 317.891 219.993 317.891 219.697ZM322.981 217.216C323.555 217.216 324.02 217.399 324.374 217.764C324.728 218.124 324.905 218.629 324.905 219.279V222.108H323.686V219.444C323.686 219.061 323.59 218.768 323.399 218.565C323.207 218.356 322.946 218.252 322.615 218.252C322.279 218.252 322.012 218.356 321.815 218.565C321.623 218.768 321.527 219.061 321.527 219.444V222.108H320.309V217.286H321.527V217.886C321.69 217.677 321.896 217.515 322.145 217.399C322.401 217.277 322.679 217.216 322.981 217.216ZM330.546 219.592C330.546 219.766 330.534 219.923 330.511 220.062H326.986C327.015 220.41 327.137 220.683 327.352 220.88C327.566 221.078 327.83 221.176 328.144 221.176C328.596 221.176 328.918 220.982 329.11 220.593H330.424C330.285 221.057 330.018 221.44 329.623 221.742C329.229 222.038 328.744 222.186 328.17 222.186C327.705 222.186 327.288 222.084 326.916 221.881C326.551 221.672 326.264 221.379 326.055 221.002C325.852 220.625 325.75 220.19 325.75 219.697C325.75 219.198 325.852 218.76 326.055 218.382C326.258 218.005 326.542 217.715 326.908 217.512C327.273 217.309 327.694 217.207 328.17 217.207C328.628 217.207 329.037 217.306 329.397 217.503C329.763 217.701 330.044 217.982 330.241 218.348C330.444 218.707 330.546 219.122 330.546 219.592ZM329.284 219.244C329.278 218.931 329.165 218.681 328.944 218.496C328.724 218.304 328.454 218.208 328.135 218.208C327.833 218.208 327.578 218.301 327.369 218.487C327.166 218.667 327.041 218.919 326.995 219.244H329.284ZM333.281 222.186C332.886 222.186 332.532 222.116 332.219 221.977C331.905 221.832 331.656 221.638 331.47 221.394C331.29 221.15 331.192 220.88 331.174 220.584H332.401C332.425 220.77 332.515 220.924 332.671 221.046C332.834 221.168 333.034 221.229 333.272 221.229C333.504 221.229 333.684 221.182 333.811 221.089C333.945 220.996 334.012 220.878 334.012 220.732C334.012 220.576 333.93 220.46 333.768 220.384C333.611 220.303 333.359 220.216 333.011 220.123C332.651 220.036 332.355 219.946 332.123 219.853C331.897 219.76 331.699 219.618 331.531 219.427C331.369 219.235 331.287 218.977 331.287 218.652C331.287 218.385 331.363 218.142 331.514 217.921C331.67 217.701 331.891 217.526 332.175 217.399C332.465 217.271 332.805 217.207 333.194 217.207C333.768 217.207 334.226 217.352 334.569 217.643C334.911 217.927 335.1 218.313 335.134 218.8H333.968C333.951 218.609 333.87 218.458 333.724 218.348C333.585 218.231 333.397 218.173 333.159 218.173C332.938 218.173 332.767 218.214 332.645 218.295C332.529 218.377 332.471 218.49 332.471 218.635C332.471 218.797 332.552 218.922 332.715 219.009C332.877 219.09 333.13 219.174 333.472 219.261C333.82 219.349 334.107 219.438 334.334 219.531C334.56 219.624 334.754 219.769 334.917 219.966C335.085 220.158 335.172 220.413 335.178 220.732C335.178 221.011 335.1 221.26 334.943 221.481C334.792 221.701 334.572 221.876 334.282 222.003C333.997 222.125 333.664 222.186 333.281 222.186ZM335.865 219.679C335.865 219.192 335.961 218.76 336.152 218.382C336.349 218.005 336.616 217.715 336.953 217.512C337.289 217.309 337.664 217.207 338.076 217.207C338.389 217.207 338.688 217.277 338.972 217.416C339.257 217.55 339.483 217.73 339.651 217.956V215.667H340.887V222.108H339.651V221.394C339.5 221.632 339.289 221.823 339.016 221.968C338.743 222.113 338.427 222.186 338.067 222.186C337.661 222.186 337.289 222.082 336.953 221.873C336.616 221.664 336.349 221.371 336.152 220.994C335.961 220.611 335.865 220.172 335.865 219.679ZM339.66 219.697C339.66 219.401 339.602 219.148 339.486 218.939C339.37 218.725 339.213 218.562 339.016 218.452C338.818 218.336 338.607 218.278 338.38 218.278C338.154 218.278 337.945 218.333 337.754 218.443C337.562 218.554 337.406 218.716 337.284 218.931C337.168 219.14 337.11 219.389 337.11 219.679C337.11 219.969 337.168 220.225 337.284 220.445C337.406 220.66 337.562 220.825 337.754 220.941C337.951 221.057 338.16 221.115 338.38 221.115C338.607 221.115 338.818 221.06 339.016 220.95C339.213 220.834 339.37 220.672 339.486 220.463C339.602 220.248 339.66 219.993 339.66 219.697ZM341.764 219.679C341.764 219.192 341.86 218.76 342.051 218.382C342.248 218.005 342.512 217.715 342.843 217.512C343.18 217.309 343.554 217.207 343.966 217.207C344.326 217.207 344.639 217.28 344.906 217.425C345.179 217.57 345.396 217.753 345.559 217.973V217.286H346.786V222.108H345.559V221.403C345.402 221.629 345.185 221.818 344.906 221.968C344.633 222.113 344.317 222.186 343.957 222.186C343.551 222.186 343.18 222.082 342.843 221.873C342.512 221.664 342.248 221.371 342.051 220.994C341.86 220.611 341.764 220.172 341.764 219.679ZM345.559 219.697C345.559 219.401 345.501 219.148 345.385 218.939C345.269 218.725 345.112 218.562 344.915 218.452C344.717 218.336 344.506 218.278 344.279 218.278C344.053 218.278 343.844 218.333 343.653 218.443C343.461 218.554 343.305 218.716 343.183 218.931C343.067 219.14 343.009 219.389 343.009 219.679C343.009 219.969 343.067 220.225 343.183 220.445C343.305 220.66 343.461 220.825 343.653 220.941C343.85 221.057 344.059 221.115 344.279 221.115C344.506 221.115 344.717 221.06 344.915 220.95C345.112 220.834 345.269 220.672 345.385 220.463C345.501 220.248 345.559 219.993 345.559 219.697ZM352.589 217.286L349.604 224.388H348.307L349.351 221.986L347.419 217.286H348.786L350.03 220.654L351.292 217.286H352.589Z" fill="#376681"/>
<path d="M1.16734 19.8638V19.2632L4.22244 15.0331H5.17117V19.1762H6.04157V19.8638H5.17117V21.2651H4.38782V19.8638H1.16734ZM4.42263 15.86L2.08126 19.1762H4.42263V15.86ZM9.6268 21.2651L7.75544 19.1588V21.2651H6.96338V14.8242H7.75544V18.6104L9.59198 16.4954H10.6974L8.45176 18.8715L10.7061 21.2651H9.6268Z" fill="#A5B4CB"/>
<path d="M1.34142 59.6578C1.38204 59.124 1.58804 58.7062 1.9594 58.4045C2.33077 58.1027 2.81239 57.9519 3.40427 57.9519C3.79885 57.9519 4.1383 58.0244 4.42263 58.1695C4.71276 58.3087 4.93036 58.5002 5.07543 58.7439C5.2263 58.9876 5.30173 59.2633 5.30173 59.5708C5.30173 59.9306 5.19729 60.241 4.98839 60.5021C4.7853 60.7633 4.51838 60.9315 4.18762 61.007V61.0505C4.5648 61.1433 4.86363 61.3261 5.08413 61.5988C5.30463 61.8716 5.41489 62.2284 5.41489 62.6694C5.41489 63.0002 5.33945 63.299 5.18858 63.5659C5.03771 63.8271 4.81141 64.033 4.50967 64.1839C4.20793 64.3348 3.84527 64.4102 3.42167 64.4102C2.80659 64.4102 2.30176 64.2506 1.90718 63.9315C1.5126 63.6066 1.2921 63.1481 1.24568 62.5563H2.01163C2.05225 62.9044 2.19441 63.1888 2.43812 63.4093C2.68184 63.6298 3.00678 63.74 3.41297 63.74C3.81916 63.74 4.1267 63.6356 4.33559 63.4267C4.55029 63.212 4.65764 62.9363 4.65764 62.5998C4.65764 62.1646 4.51257 61.8512 4.22244 61.6598C3.93231 61.4683 3.49421 61.3725 2.90814 61.3725H2.70795V60.711H2.91684C3.45069 60.7052 3.85397 60.6182 4.1267 60.4499C4.39942 60.2758 4.53578 60.0089 4.53578 59.6491C4.53578 59.3416 4.43424 59.095 4.23114 58.9093C4.03385 58.7236 3.74952 58.6308 3.37815 58.6308C3.01839 58.6308 2.72826 58.7236 2.50776 58.9093C2.28725 59.095 2.1567 59.3445 2.11608 59.6578H1.34142ZM9.2783 64.3667L7.40694 62.2603V64.3667H6.61488V57.9258H7.40694V61.712L9.24348 59.5969H10.3489L8.10326 61.9731L10.3576 64.3667H9.2783Z" fill="#A5B4CB"/>
<path d="M1.26309 106.893C2.00002 106.301 2.57739 105.817 2.99518 105.439C3.41297 105.056 3.76403 104.659 4.04836 104.247C4.33849 103.829 4.48356 103.42 4.48356 103.02C4.48356 102.642 4.39072 102.347 4.20503 102.132C4.02515 101.911 3.73212 101.801 3.32593 101.801C2.93135 101.801 2.62381 101.926 2.40331 102.175C2.18861 102.419 2.07256 102.747 2.05515 103.159H1.2892C1.31241 102.509 1.5097 102.007 1.88107 101.653C2.25244 101.299 2.73116 101.122 3.31723 101.122C3.9149 101.122 4.38782 101.288 4.73597 101.618C5.08994 101.949 5.26692 102.405 5.26692 102.985C5.26692 103.466 5.12185 103.936 4.83172 104.395C4.54739 104.847 4.22244 105.248 3.85687 105.596C3.49131 105.938 3.02419 106.339 2.45553 106.797H5.4497V107.459H1.26309V106.893ZM9.1593 107.528L7.28794 105.422V107.528H6.49588V101.087H7.28794V104.874L9.12448 102.759H10.2299L7.98426 105.135L10.2386 107.528H9.1593Z" fill="#A5B4CB"/>
<path d="M2.43625 144.909V144.187H4.0726V150.48H3.27183V144.909H2.43625ZM8.22712 150.48L6.35576 148.373V150.48H5.5637V144.039H6.35576V147.825L8.1923 145.71H9.29771L7.05208 148.086L9.30641 150.48H8.22712Z" fill="#A5B4CB"/>
<path d="M0.717015 190.561C0.717015 189.563 0.879489 188.785 1.20444 188.228C1.52939 187.665 2.09805 187.384 2.91042 187.384C3.71699 187.384 4.28275 187.665 4.60769 188.228C4.93264 188.785 5.09512 189.563 5.09512 190.561C5.09512 191.576 4.93264 192.366 4.60769 192.928C4.28275 193.491 3.71699 193.773 2.91042 193.773C2.09805 193.773 1.52939 193.491 1.20444 192.928C0.879489 192.366 0.717015 191.576 0.717015 190.561ZM4.31176 190.561C4.31176 190.056 4.27694 189.63 4.20731 189.281C4.14348 188.927 4.00712 188.643 3.79822 188.428C3.59513 188.214 3.2992 188.106 2.91042 188.106C2.51584 188.106 2.2141 188.214 2.0052 188.428C1.80211 188.643 1.66575 188.927 1.59612 189.281C1.53229 189.63 1.50037 190.056 1.50037 190.561C1.50037 191.083 1.53229 191.521 1.59612 191.875C1.66575 192.229 1.80211 192.514 2.0052 192.728C2.2141 192.943 2.51584 193.05 2.91042 193.05C3.2992 193.05 3.59513 192.943 3.79822 192.728C4.00712 192.514 4.14348 192.229 4.20731 191.875C4.27694 191.521 4.31176 191.083 4.31176 190.561ZM8.97648 193.773L7.10512 191.666V193.773H6.31306V187.332H7.10512V191.118L8.94166 189.003H10.0471L7.80144 191.379L10.0558 193.773H8.97648Z" fill="#A5B4CB"/>
<ellipse cx="17.5256" cy="52.7784" rx="1.92834" ry="1.29479" fill="#376681"/>
<ellipse cx="150.786" cy="87.4162" rx="19.2834" ry="12.9479" fill="white"/>
<path d="M87.092 140.329L56 155.02V199.338L617.861 199.337V46.384C609.805 46.1552 584.16 45.0435 558.082 48.1108C535.448 50.7731 512.489 57.3093 500.42 61.2961C467.953 72.0213 473.509 87.7595 456.32 98.0184C439.132 108.277 420.381 110.726 399.199 106.412C378.017 102.099 381.837 97.2023 361.87 88.6921C341.904 80.1818 320.548 79.4823 301.276 81.4642C282.19 83.4269 272.795 88.7463 258.698 96.7276L258.286 96.9609C243.959 105.072 228.736 127.7 200.139 133.37C171.541 139.04 167.127 130.406 140.065 127.7C118.415 125.534 95.729 135.217 87.092 140.329Z" fill="url(#paint0_linear_147_760)"/>
<path d="M56.5741 155.801L87.6661 141.11C96.3031 135.998 118.989 126.315 140.639 128.48C167.701 131.186 172.115 139.821 200.713 134.15C229.31 128.48 244.533 105.852 258.86 97.7415C273.187 89.6305 282.579 84.2266 301.851 82.2448C321.123 80.2629 342.478 80.9624 362.444 89.4727C382.411 97.9829 378.591 102.879 399.773 107.193C420.955 111.506 439.706 109.058 456.894 98.799C474.083 88.54 468.527 72.8019 500.994 62.0766C517.189 55.3936 563.463 42.9771 619 46.7751" stroke="#376681" stroke-width="1.7408"/>
<ellipse cx="155.929" cy="130.227" rx="14.1412" ry="9.49516" fill="white"/>
<path fill-rule="evenodd" clip-rule="evenodd" d="M156.886 128.243L159.736 130.226C160.032 130.432 160.439 130.359 160.645 130.063C160.851 129.767 160.778 129.36 160.482 129.154L156.594 126.45C156.22 126.19 155.725 126.19 155.351 126.45L151.378 129.213C151.082 129.419 151.009 129.826 151.215 130.122C151.421 130.418 151.827 130.491 152.123 130.285L154.971 128.305V134.101H156.886V128.243Z" fill="#A5B4CB"/>
<ellipse cx="317.088" cy="80.279" rx="14.1412" ry="9.49516" transform="rotate(-180 317.088 80.279)" fill="white"/>
<path fill-rule="evenodd" clip-rule="evenodd" d="M316.13 82.2632L313.28 80.2805C312.984 80.0746 312.578 80.1476 312.372 80.4436C312.166 80.7395 312.239 81.1463 312.535 81.3522L316.423 84.0568C316.796 84.3166 317.292 84.3167 317.665 84.0569L321.638 81.2932C321.934 81.0873 322.007 80.6805 321.801 80.3845C321.596 80.0885 321.189 80.0155 320.893 80.2214L318.046 82.2019L318.046 76.4058L316.13 76.4058L316.13 82.2632Z" fill="#A5B4CB"/>
<ellipse cx="479.153" cy="74.9312" rx="14.1412" ry="9.49516" fill="white"/>
<path fill-rule="evenodd" clip-rule="evenodd" d="M480.109 72.9475L482.959 74.9302C483.255 75.1361 483.662 75.0631 483.868 74.7671C484.074 74.4712 484.001 74.0643 483.705 73.8585L479.817 71.1538C479.444 70.894 478.948 70.894 478.574 71.1538L474.601 73.9175C474.305 74.1234 474.232 74.5302 474.438 74.8262C474.644 75.1221 475.051 75.1952 475.347 74.9893L478.194 73.0088V78.8044H480.109V72.9475Z" fill="#A5B4CB"/>
<defs>
<linearGradient id="paint0_linear_147_760" x1="317.015" y1="51.7811" x2="317.015" y2="199.337" gradientUnits="userSpaceOnUse">
<stop stop-color="#E0ECFC"/>
<stop offset="1" stop-color="white" stop-opacity="0"/>
</linearGradient>
</defs>
</svg>
