<svg width="24" height="21" viewBox="0 0 24 21" fill="none" xmlns="http://www.w3.org/2000/svg">
<path d="M10.4212 17.8644C14.8117 17.8644 18.371 14.3052 18.371 9.91463C18.371 5.52409 14.8117 1.96484 10.4212 1.96484C6.03062 1.96484 2.47137 5.52409 2.47137 9.91463C2.47137 14.3052 6.03062 17.8644 10.4212 17.8644Z" stroke="#005FB7" stroke-width="1.05997" stroke-linecap="round" stroke-linejoin="round"/>
<path d="M9.66507 12.4397V8.20976C9.66507 7.80849 9.47637 7.64966 8.99516 7.64966H7.76855C7.28734 7.64966 7.09863 7.80849 7.09863 8.20976V12.4397C7.09863 12.841 7.28734 12.9998 7.76855 12.9998H8.98572C9.47637 12.9998 9.66507 12.841 9.66507 12.4397Z" stroke="#005FB7" stroke-width="1.25426" stroke-linecap="round" stroke-linejoin="round"/>
<path d="M14.645 12.4397V8.20976C14.645 7.80849 14.4563 7.64966 13.9751 7.64966H12.7579C12.2767 7.64966 12.088 7.80849 12.088 8.20976V12.4397C12.088 12.841 12.2767 12.9998 12.7579 12.9998H13.9751C14.4563 12.9998 14.645 12.841 14.645 12.4397Z" stroke="#005FB7" stroke-width="1.25426" stroke-linecap="round" stroke-linejoin="round"/>
</svg>
