<svg width="210" height="103" viewBox="0 0 210 103" fill="none" xmlns="http://www.w3.org/2000/svg">
<path d="M8.37555 102.64C3.74986 102.64 -0.0366204 98.8839 0.352717 94.2746C1.24206 83.7458 3.80648 73.3982 7.96939 63.6067C13.2308 51.2315 20.9425 39.9871 30.6643 30.5155C40.386 21.0439 51.9275 13.5306 64.6296 8.40466C77.3317 3.27869 90.9457 0.640379 104.694 0.640381C118.443 0.640383 132.057 3.27869 144.759 8.40467C157.461 13.5307 169.003 21.0439 178.724 30.5155C188.446 39.9871 196.158 51.2315 201.419 63.6067C205.582 73.3982 208.147 83.7459 209.036 94.2747C209.425 98.8839 205.639 102.64 201.013 102.64C196.387 102.64 192.681 98.8813 192.218 94.2788C191.374 85.8951 189.264 77.6629 185.943 69.8521C181.524 59.4569 175.046 50.0116 166.88 42.0555C158.713 34.0994 149.019 27.7882 138.349 23.4824C127.679 19.1766 116.243 16.9604 104.694 16.9604C93.1455 16.9604 81.7097 19.1766 71.0399 23.4824C60.3702 27.7882 50.6754 34.0993 42.5091 42.0555C34.3428 50.0116 27.865 59.4569 23.4454 69.8521C20.1246 77.6629 18.0147 85.8951 17.1709 94.2788C16.7076 98.8812 13.0012 102.64 8.37555 102.64Z" fill="#FFF7E8"/>
<path d="M8.37555 102.64C3.74986 102.64 -0.0366618 98.8834 0.35256 94.2741C2.28634 71.3738 12.1158 49.6858 28.3755 32.8167L40.5865 43.9885C27.2446 57.8305 19.0568 75.5352 17.1707 94.2786C16.7076 98.881 13.0012 102.64 8.37555 102.64Z" fill="#D9D9D9"/>
<path d="M8.37555 102.64C3.74986 102.64 -0.036646 98.8837 0.352651 94.2745C1.92113 75.7036 8.68873 57.8473 19.9949 42.6863C32.9904 25.2598 51.3149 12.2889 72.342 5.63261C93.3692 -1.0237 116.02 -1.02369 137.047 5.63263C155.325 11.4189 171.562 21.9768 184.031 36.0852C187.119 39.58 186.257 44.9069 182.45 47.6016C178.774 50.2034 173.723 49.3673 170.704 46.026C160.316 34.5295 146.917 25.917 131.87 21.1539C114.208 15.5626 95.1812 15.5626 77.5184 21.1539C59.8556 26.7452 44.463 37.6407 33.5468 52.2789C24.3207 64.6507 18.6925 79.1591 17.1708 94.2787C16.7076 98.8811 13.0012 102.64 8.37555 102.64Z" fill="#FFCD71"/>
<path d="M79.2426 69.4484C77.0239 68.339 75.9146 66.5897 75.9146 64.2004C75.9146 63.0484 76.2026 61.9924 76.7786 61.0324C77.3546 60.0724 78.2186 59.315 79.3706 58.7604C80.5226 58.1844 81.9306 57.8964 83.5946 57.8964C85.2373 57.8964 86.6346 58.1844 87.7866 58.7604C88.9599 59.315 89.8346 60.0724 90.4106 61.0324C90.9866 61.9924 91.2746 63.0484 91.2746 64.2004C91.2746 65.395 90.9653 66.451 90.3466 67.3684C89.7493 68.2644 88.9493 68.9577 87.9466 69.4484C89.1626 69.8964 90.1226 70.6324 90.8266 71.6564C91.5306 72.659 91.8826 73.843 91.8826 75.2084C91.8826 76.595 91.5306 77.8217 90.8266 78.8884C90.1226 79.955 89.1413 80.7764 87.8826 81.3524C86.6239 81.9284 85.1946 82.2164 83.5946 82.2164C81.9946 82.2164 80.5653 81.9284 79.3066 81.3524C78.0693 80.7764 77.0986 79.955 76.3946 78.8884C75.6906 77.8217 75.3386 76.595 75.3386 75.2084C75.3386 73.8217 75.6906 72.627 76.3946 71.6244C77.0986 70.6217 78.0479 69.8964 79.2426 69.4484ZM87.7866 64.6484C87.7866 63.4537 87.4133 62.5364 86.6666 61.8964C85.9199 61.2564 84.8959 60.9364 83.5946 60.9364C82.3146 60.9364 81.3013 61.2564 80.5546 61.8964C79.8079 62.5364 79.4346 63.4644 79.4346 64.6804C79.4346 65.747 79.8186 66.6217 80.5866 67.3044C81.3759 67.9657 82.3786 68.2964 83.5946 68.2964C84.8106 68.2964 85.8133 67.955 86.6026 67.2724C87.3919 66.5897 87.7866 65.715 87.7866 64.6484ZM83.5946 71.0484C82.1866 71.0484 81.0346 71.4004 80.1386 72.1044C79.2639 72.787 78.8266 73.779 78.8266 75.0804C78.8266 76.2964 79.2533 77.2884 80.1066 78.0564C80.9599 78.803 82.1226 79.1764 83.5946 79.1764C85.0453 79.1764 86.1866 78.7924 87.0186 78.0244C87.8719 77.2564 88.2986 76.275 88.2986 75.0804C88.2986 73.8004 87.8613 72.8084 86.9866 72.1044C86.1333 71.4004 85.0026 71.0484 83.5946 71.0484ZM93.6726 76.7764V74.0244L104.425 58.6004H108.841V73.6084H111.817V76.7764H108.841V81.6404H105.257V76.7764H93.6726ZM105.417 62.3124L97.8646 73.6084H105.417V62.3124ZM112.671 63.9444C112.671 62.387 113.119 61.171 114.015 60.2964C114.932 59.4004 116.106 58.9524 117.535 58.9524C118.964 58.9524 120.127 59.4004 121.023 60.2964C121.94 61.171 122.399 62.387 122.399 63.9444C122.399 65.5017 121.94 66.7284 121.023 67.6244C120.127 68.5204 118.964 68.9684 117.535 68.9684C116.106 68.9684 114.932 68.5204 114.015 67.6244C113.119 66.7284 112.671 65.5017 112.671 63.9444ZM132.191 59.3684L119.423 81.6404H115.839L128.607 59.3684H132.191ZM117.535 61.1604C116.191 61.1604 115.519 62.0884 115.519 63.9444C115.519 65.8217 116.191 66.7604 117.535 66.7604C118.175 66.7604 118.666 66.5364 119.007 66.0884C119.37 65.619 119.551 64.9044 119.551 63.9444C119.551 62.0884 118.879 61.1604 117.535 61.1604ZM125.695 77.0324C125.695 75.475 126.143 74.259 127.039 73.3844C127.956 72.4884 129.13 72.0404 130.559 72.0404C131.967 72.0404 133.119 72.4884 134.015 73.3844C134.932 74.259 135.391 75.475 135.391 77.0324C135.391 78.5897 134.932 79.8164 134.015 80.7124C133.119 81.6084 131.967 82.0564 130.559 82.0564C129.13 82.0564 127.956 81.6084 127.039 80.7124C126.143 79.8164 125.695 78.5897 125.695 77.0324ZM130.527 74.2484C129.183 74.2484 128.511 75.1764 128.511 77.0324C128.511 78.8884 129.183 79.8164 130.527 79.8164C131.871 79.8164 132.543 78.8884 132.543 77.0324C132.543 75.1764 131.871 74.2484 130.527 74.2484Z" fill="#131313"/>
</svg>
