<svg width="34" height="32" viewBox="0 0 34 32" fill="none" xmlns="http://www.w3.org/2000/svg">
<path d="M25.0502 17.2387C24.5606 17.2387 24.1483 16.865 24.0839 16.3754C23.7747 13.4635 22.2028 10.8222 19.7805 9.14719C19.3424 8.83796 19.2393 8.24527 19.5357 7.8072C19.8449 7.36912 20.4505 7.26605 20.8756 7.56239C23.7618 9.5595 25.6172 12.7033 25.9908 16.1693C26.0424 16.6975 25.6687 17.1743 25.1276 17.2387C25.1147 17.2387 25.076 17.2387 25.0502 17.2387Z" fill="#EE8B3A"/>
<path d="M2.97919 17.3032C2.94054 17.3032 2.91477 17.3032 2.87611 17.3032C2.34785 17.2388 1.96131 16.7621 2.01285 16.2338C2.36073 12.7679 4.20322 9.63692 7.05071 7.61404C7.48878 7.30481 8.09436 7.40789 8.40359 7.84596C8.71282 8.28404 8.60974 8.88961 8.17167 9.19884C5.77514 10.8867 4.22899 13.5281 3.93265 16.44C3.89399 16.9296 3.4688 17.3032 2.97919 17.3032Z" fill="#EE8B3A"/>
<path d="M14.0211 29.5314C12.1142 29.5314 10.2975 29.0933 8.59669 28.2427C8.11996 27.9978 7.92669 27.4178 8.1715 26.941C8.41631 26.4642 8.99611 26.2708 9.47284 26.5157C12.2559 27.9205 15.6059 27.9462 18.4147 26.593C18.8914 26.361 19.4713 26.5673 19.7032 27.0441C19.9351 27.5209 19.7289 28.1009 19.2522 28.3329C17.603 29.1319 15.8507 29.5314 14.0211 29.5314Z" fill="#EE8B3A"/>
<path d="M14.0211 11.2733C11.5087 11.2733 9.4729 9.23749 9.4729 6.725C9.4729 4.21252 11.5087 2.17676 14.0211 2.17676C16.5336 2.17676 18.5694 4.21252 18.5694 6.725C18.5694 9.23749 16.5208 11.2733 14.0211 11.2733ZM14.0211 4.12233C12.5781 4.12233 11.4056 5.29482 11.4056 6.73789C11.4056 8.18096 12.5781 9.35345 14.0211 9.35345C15.4642 9.35345 16.6367 8.18096 16.6367 6.73789C16.6367 5.29482 15.4513 4.12233 14.0211 4.12233Z" fill="#EE8B3A"/>
<path d="M4.70554 27.0311C2.19305 27.0311 0.157288 24.9953 0.157288 22.4828C0.157288 19.9832 2.19305 17.9346 4.70554 17.9346C7.21802 17.9346 9.25378 19.9703 9.25378 22.4828C9.25378 24.9824 7.21802 27.0311 4.70554 27.0311ZM4.70554 19.8673C3.26247 19.8673 2.08997 21.0397 2.08997 22.4828C2.08997 23.9259 3.26247 25.0984 4.70554 25.0984C6.14861 25.0984 7.3211 23.9259 7.3211 22.4828C7.3211 21.0397 6.14861 19.8673 4.70554 19.8673Z" fill="#EE8B3A"/>
<path d="M23.182 27.0311C20.6695 27.0311 18.6338 24.9953 18.6338 22.4828C18.6338 19.9832 20.6695 17.9346 23.182 17.9346C25.6945 17.9346 27.7303 19.9703 27.7303 22.4828C27.7174 24.9824 25.6816 27.0311 23.182 27.0311ZM23.182 19.8673C21.739 19.8673 20.5665 21.0397 20.5665 22.4828C20.5665 23.9259 21.739 25.0984 23.182 25.0984C24.6251 25.0984 25.7976 23.9259 25.7976 22.4828C25.7847 21.0397 24.6251 19.8673 23.182 19.8673Z" fill="#EE8B3A"/>
</svg>
