<svg width="31" height="31" viewBox="0 0 31 31" fill="none" xmlns="http://www.w3.org/2000/svg">
<path d="M3.22693 19.0376C4.55917 23.3207 8.14503 26.6202 12.6024 27.5291" stroke="#EE8B3A" stroke-width="1.40072" stroke-miterlimit="10" stroke-linecap="round" stroke-linejoin="round"/>
<path d="M2.72894 14.0698C3.36393 7.78211 8.668 2.88892 15.1176 2.88892C21.5671 2.88892 26.8712 7.79456 27.5062 14.0698" stroke="#EE8B3A" stroke-width="1.40072" stroke-miterlimit="10" stroke-linecap="round" stroke-linejoin="round"/>
<path d="M17.6201 27.5415C22.0651 26.6326 25.6385 23.3705 26.9957 19.0999" stroke="#EE8B3A" stroke-width="1.40072" stroke-miterlimit="10" stroke-linecap="round" stroke-linejoin="round"/>
<g clip-path="url(#clip0_165_267)">
<mask id="mask0_165_267" style="mask-type:luminance" maskUnits="userSpaceOnUse" x="7" y="8" width="16" height="16">
<path d="M23 8H7V24H23V8Z" fill="white"/>
</mask>
<g mask="url(#mask0_165_267)">
<path d="M16.4467 17.1399L17.38 15.5266C17.44 15.4266 17.4133 15.2999 17.3267 15.2266L16.34 14.4533C16.36 14.3066 16.3733 14.1533 16.3733 13.9999C16.3733 13.8466 16.36 13.6933 16.34 13.5399L17.3267 12.7666C17.4133 12.6933 17.44 12.5666 17.38 12.4666L16.4467 10.8533C16.3867 10.7533 16.2667 10.7133 16.16 10.7533L15 11.2199C14.76 11.0333 14.5 10.8799 14.2133 10.7599L14.04 9.52659C14.02 9.41992 13.92 9.33325 13.8067 9.33325H11.94C11.8267 9.33325 11.7267 9.41992 11.7067 9.53325L11.5333 10.7666C11.2533 10.8866 10.9867 11.0399 10.7467 11.2266L9.58668 10.7599C9.48001 10.7199 9.36001 10.7599 9.30001 10.8599L8.36668 12.4733C8.30668 12.5733 8.33335 12.6999 8.42001 12.7733L9.40668 13.5466C9.38668 13.6933 9.37335 13.8466 9.37335 13.9999C9.37335 14.1533 9.38668 14.3066 9.40668 14.4599L8.42001 15.2333C8.33335 15.3066 8.30668 15.4333 8.36668 15.5333L9.30001 17.1466C9.36001 17.2466 9.48001 17.2866 9.58668 17.2466L10.7467 16.7799C10.9867 16.9666 11.2467 17.1199 11.5333 17.2399L11.7067 18.4733C11.7267 18.5799 11.8267 18.6666 11.94 18.6666H13.8067C13.92 18.6666 14.02 18.5799 14.04 18.4666L14.2133 17.2333C14.4933 17.1133 14.76 16.9599 15 16.7733L16.16 17.2399C16.2667 17.2799 16.3867 17.2399 16.4467 17.1399ZM12.8733 15.3333C12.14 15.3333 11.54 14.7333 11.54 13.9999C11.54 13.2666 12.14 12.6666 12.8733 12.6666C13.6067 12.6666 14.2067 13.2666 14.2067 13.9999C14.2067 14.7333 13.6067 15.3333 12.8733 15.3333Z" fill="#EE8B3A"/>
<path d="M21.6133 20.4465L20.9733 19.9532C20.9867 19.8598 21 19.7598 21 19.6598C21 19.5598 20.9933 19.4598 20.9733 19.3665L21.6067 18.8732C21.66 18.8265 21.68 18.7465 21.64 18.6798L21.04 17.6465C21.0067 17.5798 20.9267 17.5598 20.8533 17.5798L20.1133 17.8798C19.96 17.7598 19.7933 17.6598 19.6067 17.5865L19.4933 16.7998C19.4867 16.7198 19.42 16.6665 19.3533 16.6665H18.16C18.0867 16.6665 18.02 16.7198 18.0133 16.7932L17.9 17.5798C17.72 17.6598 17.5467 17.7532 17.3933 17.8732L16.6533 17.5732C16.5867 17.5465 16.5067 17.5732 16.4667 17.6398L15.8667 18.6732C15.8333 18.7398 15.84 18.8198 15.9 18.8665L16.5333 19.3598C16.52 19.4532 16.5133 19.5532 16.5133 19.6532C16.5133 19.7532 16.52 19.8532 16.5333 19.9465L15.9 20.4398C15.8467 20.4865 15.8267 20.5665 15.8667 20.6332L16.4667 21.6665C16.5 21.7332 16.58 21.7532 16.6533 21.7332L17.3933 21.4332C17.5467 21.5532 17.7133 21.6532 17.9 21.7265L18.0133 22.5132C18.0267 22.5865 18.0867 22.6398 18.16 22.6398H19.3533C19.4267 22.6398 19.4933 22.5865 19.5 22.5132L19.6133 21.7265C19.7933 21.6465 19.9667 21.5532 20.1133 21.4332L20.86 21.7332C20.9267 21.7598 21.0067 21.7332 21.0467 21.6665L21.6467 20.6332C21.6867 20.5732 21.6667 20.4932 21.6133 20.4465ZM18.7533 20.5532C18.26 20.5532 17.8533 20.1532 17.8533 19.6532C17.8533 19.1532 18.2533 18.7532 18.7533 18.7532C19.2533 18.7532 19.6533 19.1532 19.6533 19.6532C19.6533 20.1532 19.2467 20.5532 18.7533 20.5532Z" fill="#EE8B3A"/>
</g>
</g>
<defs>
<clipPath id="clip0_165_267">
<rect width="16" height="16" fill="white" transform="translate(7 8)"/>
</clipPath>
</defs>
</svg>
