<svg width="31" height="31" viewBox="0 0 31 31" fill="none" xmlns="http://www.w3.org/2000/svg">
<path d="M3.22693 19.0376C4.55917 23.3207 8.14503 26.6202 12.6024 27.5291" stroke="#EE8B3A" stroke-width="1.40072" stroke-miterlimit="10" stroke-linecap="round" stroke-linejoin="round"/>
<path d="M2.72894 14.0698C3.36393 7.78211 8.668 2.88892 15.1176 2.88892C21.5671 2.88892 26.8712 7.79456 27.5062 14.0698" stroke="#EE8B3A" stroke-width="1.40072" stroke-miterlimit="10" stroke-linecap="round" stroke-linejoin="round"/>
<path d="M17.6201 27.5415C22.0651 26.6326 25.6385 23.3705 26.9957 19.0999" stroke="#EE8B3A" stroke-width="1.40072" stroke-miterlimit="10" stroke-linecap="round" stroke-linejoin="round"/>
<path d="M12.822 15.2118V13.9066C12.822 12.2862 13.9696 11.6226 15.3737 12.4328L16.5066 13.0854L17.6394 13.738C19.0436 14.5482 19.0436 15.8754 17.6394 16.6856L16.5066 17.3382L15.3737 17.9908C13.9696 18.801 12.822 18.1375 12.822 16.517V15.2118Z" stroke="#EE8B3A" stroke-width="0.977656" stroke-miterlimit="10" stroke-linecap="round" stroke-linejoin="round"/>
</svg>
