<svg width="44" height="42" viewBox="0 0 44 42" fill="none" xmlns="http://www.w3.org/2000/svg">
<g filter="url(#filter0_d_2018_1110)">
<ellipse cx="21.6223" cy="19.744" rx="17.6223" ry="16.7438" fill="#376681"/>
<path d="M38.6863 19.744C38.6863 28.6564 31.0737 35.9295 21.6223 35.9295C12.1708 35.9295 4.5582 28.6564 4.5582 19.744C4.5582 10.8315 12.1708 3.55845 21.6223 3.55845C31.0737 3.55845 38.6863 10.8315 38.6863 19.744Z" stroke="#376681" stroke-width="1.11653"/>
</g>
<path d="M21.4999 11.0002C16.8249 11.0002 12.9999 14.8252 12.9999 19.5002C12.9999 24.1752 16.8249 28.0002 21.4999 28.0002C26.1749 28.0002 29.9999 24.1752 29.9999 19.5002C29.9999 14.8252 26.1749 11.0002 21.4999 11.0002ZM21.4999 26.7859C17.4928 26.7859 14.2142 23.5073 14.2142 19.5002C14.2142 15.6752 17.1892 12.5788 20.8928 12.2752V19.5002C20.8928 19.8645 21.1357 20.1073 21.4999 20.1073H28.7249C28.4214 23.8109 25.3249 26.7859 21.4999 26.7859Z" fill="white"/>
<path d="M21.4999 8.00018C15.1749 8.00018 9.99994 13.1752 9.99994 19.5002C9.99994 25.8252 15.1749 31.0002 21.4999 31.0002C27.8249 31.0002 32.9999 25.8252 32.9999 19.5002C32.9999 13.1752 27.8249 8.00018 21.4999 8.00018ZM21.4999 29.3573C16.0785 29.3573 11.6428 24.9216 11.6428 19.5002C11.6428 14.3252 15.6678 10.1359 20.6785 9.72518V19.5002C20.6785 19.993 21.0071 20.3216 21.4999 20.3216H31.2749C30.8642 25.3323 26.6749 29.3573 21.4999 29.3573Z" fill="white"/>
<defs>
<filter id="filter0_d_2018_1110" x="0.0929623" y="0.0699506" width="43.0586" height="41.3015" filterUnits="userSpaceOnUse" color-interpolation-filters="sRGB">
<feFlood flood-opacity="0" result="BackgroundImageFix"/>
<feColorMatrix in="SourceAlpha" type="matrix" values="0 0 0 0 0 0 0 0 0 0 0 0 0 0 0 0 0 0 127 0" result="hardAlpha"/>
<feOffset dy="0.976744"/>
<feGaussianBlur stdDeviation="1.95349"/>
<feComposite in2="hardAlpha" operator="out"/>
<feColorMatrix type="matrix" values="0 0 0 0 0 0 0 0 0 0 0 0 0 0 0 0 0 0 0.25 0"/>
<feBlend mode="normal" in2="BackgroundImageFix" result="effect1_dropShadow_2018_1110"/>
<feBlend mode="normal" in="SourceGraphic" in2="effect1_dropShadow_2018_1110" result="shape"/>
</filter>
</defs>
</svg>
