<svg width="21" height="18" viewBox="0 0 21 18" fill="none" xmlns="http://www.w3.org/2000/svg">
<path d="M15.25 14H15.26M15.65 11H16.25C17.1819 11 17.6478 11 18.0154 11.1522C18.5054 11.3552 18.8948 11.7446 19.0978 12.2346C19.25 12.6022 19.25 13.0681 19.25 14C19.25 14.9319 19.25 15.3978 19.0978 15.7654C18.8948 16.2554 18.5054 16.6448 18.0154 16.8478C17.6478 17 17.1819 17 16.25 17H4.25C3.31812 17 2.85218 17 2.48463 16.8478C1.99458 16.6448 1.60523 16.2554 1.40224 15.7654C1.25 15.3978 1.25 14.9319 1.25 14C1.25 13.0681 1.25 12.6022 1.40224 12.2346C1.60523 11.7446 1.99458 11.3552 2.48463 11.1522C2.85218 11 3.31812 11 4.25 11H4.85M10.25 12V1M10.25 12L7.25 9M10.25 12L13.25 9" stroke="#376681" stroke-width="2" stroke-linecap="round" stroke-linejoin="round"/>
</svg>
