<svg width="21" height="19" viewBox="0 0 21 19" fill="none" xmlns="http://www.w3.org/2000/svg">
<path d="M13.1246 9.49871V17.8154C13.1771 18.132 13.0459 18.4697 12.7441 18.6914C12.6227 18.7892 12.4784 18.8668 12.3197 18.9198C12.1609 18.9727 11.9908 19 11.8189 19C11.647 19 11.4768 18.9727 11.3181 18.9198C11.1593 18.8668 11.0151 18.7892 10.8937 18.6914L8.25593 16.57C8.11281 16.4574 8.00398 16.3198 7.93796 16.1679C7.87194 16.0159 7.85051 15.8537 7.87536 15.694V9.49871H7.83599L0.27704 1.70977C0.0639307 1.48975 -0.0322287 1.21083 0.00957409 0.933966C0.0513768 0.657102 0.227743 0.4048 0.500135 0.232191C0.749475 0.084433 1.02506 0 1.31377 0H19.6862C19.9749 0 20.2505 0.084433 20.4999 0.232191C20.7723 0.4048 20.9486 0.657102 20.9904 0.933966C21.0322 1.21083 20.9361 1.48975 20.723 1.70977L13.164 9.49871H13.1246Z" fill="#376681"/>
</svg>
