<svg width="26" height="25" viewBox="0 0 26 25" fill="none" xmlns="http://www.w3.org/2000/svg">
<path d="M17.1373 8.29374C15.8452 7.00156 14.0139 6.25638 12.0003 6.46249C9.09095 6.75581 6.69685 9.1182 6.37183 12.0276C5.93582 15.8724 8.90862 19.1147 12.6583 19.1147C15.1872 19.1147 17.3593 17.6323 18.374 15.4998C18.6277 14.9687 18.2472 14.3583 17.6605 14.3583C17.3672 14.3583 17.0898 14.5168 16.9629 14.7784C16.0671 16.7048 13.9188 17.9256 11.5722 17.4024C9.81235 17.014 8.39333 15.5791 8.02074 13.8192C7.35483 10.7433 9.69344 8.01628 12.6583 8.01628C13.9743 8.01628 15.1475 8.56327 16.0037 9.42737L14.8067 10.6244C14.3072 11.1238 14.656 11.98 15.3616 11.98H18.2075C18.6435 11.98 19.0003 11.6233 19.0003 11.1873V8.3413C19.0003 7.63576 18.1441 7.27902 17.6447 7.77845L17.1373 8.29374Z" fill="#A2A2A2"/>
<path d="M9.20314 23.2683H16.2341C22.0933 23.2683 24.437 21.0415 24.437 15.4744V8.7939C24.437 3.22683 22.0933 1 16.2341 1H9.20314C3.34397 1 1.00031 3.22683 1.00031 8.7939V15.4744C1.00031 21.0415 3.34397 23.2683 9.20314 23.2683Z" stroke="#A2A2A2" stroke-width="1.67053" stroke-linecap="round" stroke-linejoin="round"/>
</svg>
