<svg width="44" height="42" viewBox="0 0 44 42" fill="none" xmlns="http://www.w3.org/2000/svg">
<g filter="url(#filter0_d_2018_894)">
<ellipse cx="21.6707" cy="19.744" rx="17.6223" ry="16.7438" fill="#376681"/>
<path d="M38.7348 19.744C38.7348 28.6564 31.1222 35.9295 21.6707 35.9295C12.2193 35.9295 4.60667 28.6564 4.60667 19.744C4.60667 10.8315 12.2193 3.55845 21.6707 3.55845C31.1222 3.55845 38.7348 10.8315 38.7348 19.744Z" stroke="#376681" stroke-width="1.11653"/>
</g>
<path d="M25.5185 25.5987H17.8307C17.1893 25.5987 16.7266 25.5756 16.3288 25.5216C13.5118 25.2285 12.9517 23.6241 12.9517 20.963V16.0881C12.9517 13.427 13.5037 11.8225 16.345 11.5294C16.7347 11.4754 17.1975 11.4523 17.8307 11.4523H25.5185C26.1517 11.4523 26.6145 11.4754 27.0204 11.5294C29.8455 11.8225 30.3975 13.427 30.3975 16.0881V20.963C30.3975 23.6241 29.8455 25.2285 27.0042 25.5216C26.6226 25.5756 26.1599 25.5987 25.5185 25.5987ZM17.8225 12.6093C17.2462 12.6093 16.8321 12.6325 16.4912 12.6788C14.7376 12.8639 14.1613 13.3807 14.1613 16.0958V20.9707C14.1613 23.6781 14.7377 24.2026 16.4749 24.38C16.8321 24.4263 17.2462 24.4494 17.8307 24.4494H25.5185C26.103 24.4494 26.5089 24.4263 26.8499 24.38C28.6034 24.1949 29.1798 23.6781 29.1798 20.963V16.0881C29.1798 13.3807 28.6034 12.8562 26.8661 12.6788C26.5008 12.6325 26.0949 12.6093 25.5104 12.6093H17.8225Z" fill="white"/>
<path d="M25.9409 17.4845H22.9535C22.6206 17.4845 22.3446 17.2221 22.3446 16.9058C22.3446 16.5895 22.6206 16.3272 22.9535 16.3272H25.9409C26.2738 16.3272 26.5498 16.5895 26.5498 16.9058C26.5498 17.2221 26.2819 17.4845 25.9409 17.4845Z" fill="white"/>
<path d="M20.0469 17.6768C19.6006 17.6768 19.2354 17.3299 19.2354 16.9058C19.2354 16.4818 19.5924 16.1348 20.0469 16.1348C20.4933 16.1348 20.8585 16.4818 20.8585 16.9058C20.8585 17.3299 20.5014 17.6768 20.0469 17.6768Z" fill="white"/>
<path d="M17.4895 17.6768C17.0432 17.6768 16.678 17.3299 16.678 16.9058C16.678 16.4818 17.0351 16.1348 17.4895 16.1348H17.4976C17.944 16.1348 18.3092 16.4818 18.3092 16.9058C18.3092 17.3299 17.9359 17.6768 17.4895 17.6768Z" fill="white"/>
<path d="M25.9412 21.9511H17.409C17.0762 21.9511 16.7921 21.6887 16.7921 21.3724C16.7921 21.0561 17.0599 20.7938 17.3928 20.7938H25.9412C26.274 20.7938 26.55 21.0561 26.55 21.3724C26.55 21.6887 26.2821 21.9511 25.9412 21.9511Z" fill="white"/>
<path d="M25.7297 28.0365H17.6116C17.2788 28.0365 17.0027 27.7742 17.0027 27.4579C17.0027 27.1416 17.2788 26.8792 17.6116 26.8792H25.7297C26.0626 26.8792 26.3386 27.1416 26.3386 27.4579C26.3386 27.7742 26.0626 28.0365 25.7297 28.0365Z" fill="white"/>
<defs>
<filter id="filter0_d_2018_894" x="0.141424" y="0.0699582" width="43.0586" height="41.3015" filterUnits="userSpaceOnUse" color-interpolation-filters="sRGB">
<feFlood flood-opacity="0" result="BackgroundImageFix"/>
<feColorMatrix in="SourceAlpha" type="matrix" values="0 0 0 0 0 0 0 0 0 0 0 0 0 0 0 0 0 0 127 0" result="hardAlpha"/>
<feOffset dy="0.976744"/>
<feGaussianBlur stdDeviation="1.95349"/>
<feComposite in2="hardAlpha" operator="out"/>
<feColorMatrix type="matrix" values="0 0 0 0 0 0 0 0 0 0 0 0 0 0 0 0 0 0 0.25 0"/>
<feBlend mode="normal" in2="BackgroundImageFix" result="effect1_dropShadow_2018_894"/>
<feBlend mode="normal" in="SourceGraphic" in2="effect1_dropShadow_2018_894" result="shape"/>
</filter>
</defs>
</svg>
