<svg width="24" height="6" viewBox="0 0 24 6" fill="none" xmlns="http://www.w3.org/2000/svg">
<path fill-rule="evenodd" clip-rule="evenodd" d="M20.521 0.457026C19.1252 0.457026 17.9938 1.56967 17.9938 2.94218C17.9938 4.3147 19.1252 5.42734 20.521 5.42734C21.9167 5.42734 23.0482 4.3147 23.0482 2.94218C23.0482 1.56967 21.9167 0.457026 20.521 0.457026ZM11.8575 0.457025C10.4618 0.457025 9.33031 1.56967 9.33031 2.94218C9.33031 4.31469 10.4618 5.42734 11.8575 5.42734C13.2533 5.42734 14.3848 4.31469 14.3848 2.94218C14.3848 1.56967 13.2533 0.457025 11.8575 0.457025ZM0.667208 2.94218C0.667208 1.56967 1.79869 0.457025 3.19444 0.457025C4.59019 0.457025 5.72167 1.56967 5.72167 2.94218C5.72167 4.31469 4.59019 5.42734 3.19444 5.42734C1.79869 5.42734 0.667208 4.31469 0.667208 2.94218Z" fill="#A7A9C0"/>
</svg>
