<svg width="31" height="32" viewBox="0 0 31 32" fill="none" xmlns="http://www.w3.org/2000/svg">
<path d="M3.18398 19.6867C4.56262 24.119 8.27338 27.5334 12.8861 28.474" stroke="#EE8B3A" stroke-width="1.44951" stroke-miterlimit="10" stroke-linecap="round" stroke-linejoin="round"/>
<path d="M2.66864 14.5458C3.32575 8.03912 8.81457 2.97549 15.4888 2.97549C22.163 2.97549 27.6518 8.05201 28.3089 14.5458" stroke="#EE8B3A" stroke-width="1.44951" stroke-miterlimit="10" stroke-linecap="round" stroke-linejoin="round"/>
<path d="M18.0785 28.4869C22.6783 27.5463 26.3762 24.1706 27.7806 19.7512" stroke="#EE8B3A" stroke-width="1.44951" stroke-miterlimit="10" stroke-linecap="round" stroke-linejoin="round"/>
<path d="M12.7802 13.88H11.0709C10.4441 13.88 9.93129 13.3672 9.93129 12.7404V11.6009C9.93129 10.9741 10.4441 10.4613 11.0709 10.4613H12.7802C13.407 10.4613 13.9198 10.9741 13.9198 11.6009V12.7404C13.9198 13.3672 13.407 13.88 12.7802 13.88Z" stroke="#EE8B3A" stroke-width="0.854688" stroke-linecap="round" stroke-linejoin="round"/>
<path d="M20.6434 13.3102H18.5921C18.2161 13.3102 17.9084 13.0025 17.9084 12.6264V11.7148C17.9084 11.3387 18.2161 11.031 18.5921 11.031H20.6434C21.0194 11.031 21.3271 11.3387 21.3271 11.7148V12.6264C21.3271 13.0025 21.0194 13.3102 20.6434 13.3102Z" stroke="#EE8B3A" stroke-width="0.854688" stroke-linecap="round" stroke-linejoin="round"/>
<path d="M20.6434 17.5836H18.5921C18.2161 17.5836 17.9084 17.276 17.9084 16.8999V15.9882C17.9084 15.6122 18.2161 15.3045 18.5921 15.3045H20.6434C21.0194 15.3045 21.3271 15.6122 21.3271 15.9882V16.8999C21.3271 17.276 21.0194 17.5836 20.6434 17.5836Z" stroke="#EE8B3A" stroke-width="0.854688" stroke-linecap="round" stroke-linejoin="round"/>
<path d="M13.9198 12.1706H17.9084" stroke="#EE8B3A" stroke-width="0.854688" stroke-miterlimit="10" stroke-linecap="round" stroke-linejoin="round"/>
<path d="M15.9141 12.1706V19.5779C15.9141 20.2047 16.4269 20.7175 17.0537 20.7175H17.9084" fill="#EE8B3A"/>
<path d="M15.9141 12.1706V19.5779C15.9141 20.2047 16.4269 20.7175 17.0537 20.7175H17.9084" stroke="#EE8B3A" stroke-width="0.854688" stroke-miterlimit="10" stroke-linecap="round" stroke-linejoin="round"/>
<path d="M15.9141 16.4441H17.9084" stroke="#EE8B3A" stroke-width="0.854688" stroke-miterlimit="10" stroke-linecap="round" stroke-linejoin="round"/>
<path d="M20.6434 21.8571H18.5921C18.2161 21.8571 17.9084 21.5494 17.9084 21.1733V20.2617C17.9084 19.8856 18.2161 19.5779 18.5921 19.5779H20.6434C21.0194 19.5779 21.3271 19.8856 21.3271 20.2617V21.1733C21.3271 21.5494 21.0194 21.8571 20.6434 21.8571Z" stroke="#EE8B3A" stroke-width="0.854688" stroke-linecap="round" stroke-linejoin="round"/>
</svg>
