<svg width="31" height="31" viewBox="0 0 31 31" fill="none" xmlns="http://www.w3.org/2000/svg">
<path d="M3.22693 19.0376C4.55917 23.3207 8.14503 26.6202 12.6024 27.5291" stroke="#EE8B3A" stroke-width="1.40072" stroke-miterlimit="10" stroke-linecap="round" stroke-linejoin="round"/>
<path d="M2.72894 14.0698C3.36393 7.78211 8.668 2.88892 15.1176 2.88892C21.5671 2.88892 26.8712 7.79456 27.5062 14.0698" stroke="#EE8B3A" stroke-width="1.40072" stroke-miterlimit="10" stroke-linecap="round" stroke-linejoin="round"/>
<path d="M17.6201 27.5415C22.0651 26.6326 25.6385 23.3705 26.9957 19.0999" stroke="#EE8B3A" stroke-width="1.40072" stroke-miterlimit="10" stroke-linecap="round" stroke-linejoin="round"/>
<path d="M13.9272 17.5005V13.4258C13.9272 13.0392 13.7661 12.8862 13.3552 12.8862H12.3079C11.8971 12.8862 11.7359 13.0392 11.7359 13.4258V17.5005C11.7359 17.887 11.8971 18.0401 12.3079 18.0401H13.3472C13.7661 18.0401 13.9272 17.887 13.9272 17.5005Z" stroke="#EE8B3A" stroke-width="1.14347" stroke-linecap="round" stroke-linejoin="round"/>
<path d="M18.1791 17.5005V13.4258C18.1791 13.0392 18.018 12.8862 17.6071 12.8862H16.5679C16.157 12.8862 15.9959 13.0392 15.9959 13.4258V17.5005C15.9959 17.887 16.157 18.0401 16.5679 18.0401H17.6071C18.018 18.0401 18.1791 17.887 18.1791 17.5005Z" stroke="#EE8B3A" stroke-width="1.14347" stroke-linecap="round" stroke-linejoin="round"/>
</svg>
