<svg width="175" height="15" viewBox="0 0 175 15" fill="none" xmlns="http://www.w3.org/2000/svg">
<g clip-path="url(#clip0_150_2)">
<path d="M13.3681 1.92398L11.2668 5.27787C10.5799 4.6044 9.76497 4.26766 8.82211 4.26766C8.48537 4.26766 8.18904 4.34848 7.93312 4.51011C7.69067 4.65827 7.56945 4.83338 7.56945 5.03542C7.56945 5.22399 8.32374 5.54726 9.83232 6.00522C11.3409 6.46318 12.0952 7.34543 12.0952 8.65196C12.0952 10.2549 11.4217 11.6153 10.0748 12.7332C8.72782 13.8512 7.09129 14.4102 5.16516 14.4102C4.06066 14.4102 2.93596 14.1879 1.79106 13.7434C1.41392 13.5953 0.955952 13.373 0.417175 13.0767L2.76086 9.39952C3.71719 10.302 4.69373 10.7532 5.69046 10.7532C6.06761 10.7532 6.38414 10.6724 6.64006 10.5108C6.90945 10.3491 7.04414 10.1336 7.04414 9.86421C7.04414 9.63523 6.29659 9.33217 4.80148 8.95503C3.31984 8.57788 2.57902 7.73604 2.57902 6.42951C2.57902 4.90746 3.23903 3.58072 4.55903 2.44929C5.89251 1.30438 7.49537 0.731938 9.36762 0.731938C10.1623 0.731938 10.856 0.819489 11.4487 0.994592C12.0413 1.16969 12.6811 1.47949 13.3681 1.92398ZM25.6934 4.51011C25.6934 6.0591 25.1613 7.38584 24.0972 8.49033C23.0332 9.59482 21.7536 10.1471 20.2585 10.1471H17.7733L16.8642 14.1273H12.1364L15.1872 0.913775H21.6323C22.8715 0.913775 23.8548 1.24377 24.5821 1.90378C25.323 2.55031 25.6934 3.41909 25.6934 4.51011ZM21.0666 5.21726C21.0666 4.98828 20.9858 4.80644 20.8242 4.67174C20.6625 4.53705 20.447 4.4697 20.1776 4.4697H19.1068L18.5815 6.79318H19.4503C19.9083 6.79318 20.2921 6.64502 20.6019 6.34869C20.9117 6.05236 21.0666 5.67522 21.0666 5.21726ZM40.4947 5.74256C40.4947 8.15359 39.6326 10.2077 37.9085 11.9049C36.1979 13.5885 34.0765 14.4304 31.5442 14.4304C29.7393 14.4304 28.3116 13.9792 27.2609 13.0767C26.2238 12.1608 25.7052 10.9216 25.7052 9.35911C25.7052 7.00196 26.5875 4.96807 28.352 3.25745C30.1299 1.53337 32.2514 0.671326 34.7163 0.671326C36.5077 0.671326 37.9153 1.12928 38.9389 2.0452C39.9761 2.94766 40.4947 4.18011 40.4947 5.74256ZM35.5244 6.75277C35.5244 6.18706 35.3695 5.73583 35.0597 5.39909C34.7499 5.06236 34.3122 4.89399 33.7465 4.89399C32.9383 4.89399 32.2177 5.23073 31.5846 5.9042C30.9516 6.57767 30.635 7.37237 30.635 8.28829C30.635 8.854 30.8034 9.31197 31.1401 9.66217C31.4769 10.0124 31.9348 10.1875 32.514 10.1875C33.3222 10.1875 34.0226 9.85748 34.6152 9.19748C35.2214 8.524 35.5244 7.7091 35.5244 6.75277ZM53.5494 4.42929C53.5494 5.46644 53.2463 6.40257 52.6402 7.23767C52.0475 8.05931 51.2461 8.63176 50.2359 8.95503L52.4584 14.1273H47.0032L45.8718 9.7834L44.8616 14.1273H40.1136L43.1644 0.913775H49.4075C50.6737 0.913775 51.6771 1.23704 52.4179 1.88357C53.1722 2.5301 53.5494 3.37868 53.5494 4.42929ZM48.7812 5.37889C48.7812 4.77277 48.431 4.4697 47.7306 4.4697H47.1043L46.5789 6.81338H47.2053C47.6632 6.81338 48.0404 6.67196 48.3367 6.3891C48.633 6.10624 48.7812 5.7695 48.7812 5.37889ZM65.1532 0.913775L64.1632 5.23746H61.4962L59.4354 14.1273H54.7278L56.7887 5.17685H54.1419L55.1319 0.913775H65.1532ZM75.4485 1.92398L73.3472 5.27787C72.6603 4.6044 71.8454 4.26766 70.9025 4.26766C70.5658 4.26766 70.2695 4.34848 70.0135 4.51011C69.7711 4.65827 69.6499 4.83338 69.6499 5.03542C69.6499 5.22399 70.4042 5.54726 71.9127 6.00522C73.4213 6.46318 74.1756 7.34543 74.1756 8.65196C74.1756 10.2549 73.5021 11.6153 72.1552 12.7332C70.8082 13.8512 69.1717 14.4102 67.2456 14.4102C66.1411 14.4102 65.0164 14.1879 63.8715 13.7434C63.4943 13.5953 63.0364 13.373 62.4976 13.0767L64.8413 9.39952C65.7976 10.302 66.7741 10.7532 67.7709 10.7532C68.148 10.7532 68.4646 10.6724 68.7205 10.5108C68.9899 10.3491 69.1246 10.1336 69.1246 9.86421C69.1246 9.63523 68.377 9.33217 66.8819 8.95503C65.4003 8.57788 64.6594 7.73604 64.6594 6.42951C64.6594 4.90746 65.3194 3.58072 66.6395 2.44929C67.9729 1.30438 69.5758 0.731938 71.448 0.731938C72.2427 0.731938 72.9364 0.819489 73.5291 0.994592C74.1217 1.16969 74.7615 1.47949 75.4485 1.92398Z" fill="#DC3545"/>
<path d="M89.572 0.913778L81.8338 10.0461H86.8444L85.8948 14.1273H73.1662L80.9852 4.8738H76.4191L77.3283 0.913778H89.572ZM103.128 5.74257C103.128 8.1536 102.265 10.2077 100.541 11.9049C98.8308 13.5885 96.7093 14.4304 94.1771 14.4304C92.3722 14.4304 90.9444 13.9792 89.8938 13.0767C88.8567 12.1608 88.3381 10.9216 88.3381 9.35912C88.3381 7.00197 89.2203 4.96808 90.9848 3.25746C92.7628 1.53338 94.8842 0.671329 97.3491 0.671329C99.1406 0.671329 100.548 1.12929 101.572 2.04521C102.609 2.94767 103.128 4.18012 103.128 5.74257ZM98.1573 6.75278C98.1573 6.18707 98.0024 5.73584 97.6926 5.3991C97.3828 5.06237 96.9451 4.894 96.3793 4.894C95.5712 4.894 94.8506 5.23074 94.2175 5.90421C93.5844 6.57768 93.2679 7.37238 93.2679 8.2883C93.2679 8.85401 93.4363 9.31198 93.773 9.66218C94.1097 10.0124 94.5677 10.1875 95.1469 10.1875C95.9551 10.1875 96.6555 9.85749 97.2481 9.19749C97.8542 8.52401 98.1573 7.70911 98.1573 6.75278ZM119.294 0.913778L116.243 14.1273H111.414L108.929 7.66197L107.454 14.1273H102.746L105.797 0.913778H110.525L113.091 7.58115L114.627 0.913778H119.294ZM129.65 0.913778L128.822 4.46971H124.781L124.498 5.74257H128.175L127.367 9.19749H123.69L123.407 10.4098H127.569L126.72 14.1273H117.81L120.861 0.913778H129.65ZM147.691 3.70195C147.691 4.4293 147.469 5.09604 147.025 5.70217C146.594 6.29482 146.014 6.73931 145.287 7.03564C146.378 7.41278 146.924 8.16707 146.924 9.29851C146.924 10.7128 146.277 11.9183 144.984 12.9151C143.691 13.8983 142.007 14.39 139.933 14.39C136.431 14.39 134.68 13.0969 134.68 10.5108C134.68 10.2953 134.7 10.0191 134.741 9.68238C134.741 9.62851 134.754 9.54096 134.781 9.41973H139.61L139.549 9.84402C139.549 10.5849 139.899 10.9553 140.6 10.9553C141.058 10.9553 141.435 10.8004 141.731 10.4906C142.028 10.1808 142.176 9.79014 142.176 9.31871C142.176 8.7934 141.785 8.53075 141.004 8.53075L140.6 8.57116L141.246 5.82339L141.549 5.8638C141.913 5.8638 142.223 5.74257 142.479 5.50012C142.735 5.25767 142.863 4.97482 142.863 4.65155C142.863 4.234 142.64 4.02522 142.196 4.02522C141.63 4.02522 141.24 4.36196 141.024 5.03543H136.337C136.822 3.62114 137.596 2.54358 138.66 1.80276C139.778 1.02154 141.192 0.63092 142.903 0.63092C144.412 0.63092 145.583 0.913778 146.419 1.4795C147.267 2.03174 147.691 2.77256 147.691 3.70195ZM161.619 0.913778L156.326 4.894C156.542 4.84012 156.71 4.79971 156.831 4.77277C157.208 4.69196 157.505 4.65155 157.72 4.65155C158.69 4.65155 159.458 4.94114 160.023 5.52033C160.589 6.09951 160.872 6.86054 160.872 7.8034C160.872 9.67565 160.158 11.2449 158.73 12.511C157.303 13.7771 155.538 14.4102 153.437 14.4102C151.78 14.4102 150.48 14.0263 149.537 13.2585C148.608 12.4773 148.143 11.4132 148.143 10.0663C148.143 8.04585 149.241 6.09278 151.437 4.20706L155.316 0.913778H161.619ZM156.185 8.65197C156.185 8.2883 156.063 7.99197 155.821 7.76299C155.578 7.53401 155.269 7.41952 154.892 7.41952C154.38 7.41952 153.895 7.63503 153.437 8.06605C152.992 8.4836 152.77 8.94157 152.77 9.43994C152.77 9.81708 152.891 10.1202 153.134 10.3491C153.39 10.5647 153.72 10.6724 154.124 10.6724C154.663 10.6724 155.141 10.4771 155.558 10.0865C155.976 9.69585 156.185 9.21769 156.185 8.65197ZM174.941 0.913778L174.093 4.63135H168.456L167.951 6.00523C168.234 5.92441 168.463 5.87053 168.638 5.8436C169.23 5.72237 169.709 5.66176 170.072 5.66176C171.244 5.66176 172.16 5.93788 172.82 6.49013C173.494 7.02891 173.83 7.76972 173.83 8.71259C173.83 10.3155 173.11 11.6691 171.668 12.7736C170.227 13.8647 168.362 14.4102 166.072 14.4102C164.887 14.4102 163.742 14.2485 162.637 13.9253C162.273 13.8175 161.829 13.6492 161.304 13.4202L162.779 9.56116C163.196 9.83055 163.553 10.0259 163.849 10.1471C164.752 10.5377 165.654 10.733 166.557 10.733C167.244 10.733 167.809 10.6253 168.254 10.4098C168.712 10.1942 168.941 9.91137 168.941 9.56116C168.941 9.21095 168.739 8.93483 168.335 8.73279C167.944 8.51728 167.365 8.40952 166.597 8.40952C165.883 8.40952 165.062 8.51728 164.132 8.73279C163.822 8.80014 163.425 8.91463 162.94 9.07626L166.011 0.913778H174.941Z" fill="#354857"/>
</g>
<defs>
<clipPath id="clip0_150_2">
<rect width="175" height="15" fill="white"/>
</clipPath>
</defs>
</svg>
